<svg xmlns="http://www.w3.org/2000/svg" class="railroad-diagram" height="80" viewBox="0 0 291.0 80" width="291.0">
<style>
svg.railroad-diagram { background: #fafafa; }
svg.railroad-diagram path { stroke-width: 2; stroke: #333; fill: none; }
svg.railroad-diagram text {
    font: bold 14px monospace; fill: #333;
    text-anchor: middle;
}
svg.railroad-diagram text.comment { font: italic 12px monospace; fill: #888; }
svg.railroad-diagram rect { stroke-width: 2; stroke: #333; fill: #fff; }
svg.railroad-diagram rect.group-box {
    stroke: #aaa; stroke-dasharray: 4 2; fill: none;
}
</style>
<g transform="translate(.5 .5)">
<g>
<path d="M20 30v20m10 -20v20m-10 -10h20" /></g><path d="M40 40h10" /><g>
<path d="M50 40h0.0" /><path d="M241.0 40h0.0" /><g class="terminal ">
<path d="M50.0 40h0.0" /><path d="M78.5 40h0.0" /><rect height="22" rx="10" ry="10" width="28.5" x="50" y="29"></rect><text x="64.25" y="44">{</text></g><path d="M78.5 40h10" /><g>
<path d="M88.5 40h0.0" /><path d="M202.5 40h0.0" /><path d="M88.5 40a10 10 0 0 0 10 -10v0a10 10 0 0 1 10 -10" /><g>
<path d="M108.5 20h74.0" /></g><path d="M182.5 20a10 10 0 0 1 10 10v0a10 10 0 0 0 10 10" /><path d="M88.5 40h20" /><g>
<path d="M108.5 40h0.0" /><path d="M182.5 40h0.0" /><path d="M108.5 40h10" /><g class="non-terminal ">
<path d="M118.5 40h0.0" /><path d="M172.5 40h0.0" /><rect height="22" width="54" x="118.5" y="29"></rect><text x="145.5" y="44">Stmt</text></g><path d="M172.5 40h10" /><path d="M118.5 40a10 10 0 0 0 -10 10v0a10 10 0 0 0 10 10" /><g>
<path d="M118.5 60h54.0" /></g><path d="M172.5 60a10 10 0 0 0 10 -10v0a10 10 0 0 0 -10 -10" /></g><path d="M182.5 40h20" /></g><path d="M202.5 40h10" /><g class="terminal ">
<path d="M212.5 40h0.0" /><path d="M241.0 40h0.0" /><rect height="22" rx="10" ry="10" width="28.5" x="212.5" y="29"></rect><text x="226.75" y="44">}</text></g></g><path d="M241.0 40h10" /><path d="M 251.0 40 h 20 m -10 -10 v 20 m 10 -20 v 20"></path></g></svg>