<svg xmlns="http://www.w3.org/2000/svg" class="railroad-diagram" height="71" viewBox="0 0 545.5 71" width="545.5">
<style>
svg.railroad-diagram { background: #fafafa; }
svg.railroad-diagram path { stroke-width: 2; stroke: #333; fill: none; }
svg.railroad-diagram text {
    font: bold 14px monospace; fill: #333;
    text-anchor: middle;
}
svg.railroad-diagram text.comment { font: italic 12px monospace; fill: #888; }
svg.railroad-diagram rect { stroke-width: 2; stroke: #333; fill: #fff; }
svg.railroad-diagram rect.group-box {
    stroke: #aaa; stroke-dasharray: 4 2; fill: none;
}
</style>
<g transform="translate(.5 .5)">
<g>
<path d="M20 30v20m10 -20v20m-10 -10h20" /></g><path d="M40 40h10" /><g>
<path d="M50 40h0.0" /><path d="M495.5 40h0.0" /><g class="non-terminal ">
<path d="M50.0 40h0.0" /><path d="M104.0 40h0.0" /><rect height="22" width="54" x="50" y="29"></rect><text x="77" y="44">Type</text></g><path d="M104.0 40h10" /><path d="M114.0 40h10" /><g class="terminal ">
<path d="M124.0 40h0.0" /><path d="M152.5 40h0.0" /><rect height="22" rx="10" ry="10" width="28.5" x="124" y="29"></rect><text x="138.25" y="44">:</text></g><path d="M152.5 40h10" /><path d="M162.5 40h10" /><g class="non-terminal ">
<path d="M172.5 40h0.0" /><path d="M260.5 40h0.0" /><rect height="22" width="88" x="172.5" y="29"></rect><text x="216.5" y="44">TypeName</text></g><path d="M260.5 40h10" /><g>
<path d="M270.5 40h0.0" /><path d="M495.5 40h0.0" /><path d="M270.5 40a10 10 0 0 0 10 -10v0a10 10 0 0 1 10 -10" /><g>
<path d="M290.5 20h185.0" /></g><path d="M475.5 20a10 10 0 0 1 10 10v0a10 10 0 0 0 10 10" /><path d="M270.5 40h20" /><g>
<path d="M290.5 40h0.0" /><path d="M475.5 40h0.0" /><g class="terminal ">
<path d="M290.5 40h0.0" /><path d="M319.0 40h0.0" /><rect height="22" rx="10" ry="10" width="28.5" x="290.5" y="29"></rect><text x="304.75" y="44">(</text></g><path d="M319.0 40h10" /><path d="M329.0 40h10" /><g class="non-terminal ">
<path d="M339.0 40h0.0" /><path d="M427.0 40h0.0" /><rect height="22" width="88" x="339" y="29"></rect><text x="383" y="44">TypeList</text></g><path d="M427.0 40h10" /><path d="M437.0 40h10" /><g class="terminal ">
<path d="M447.0 40h0.0" /><path d="M475.5 40h0.0" /><rect height="22" rx="10" ry="10" width="28.5" x="447" y="29"></rect><text x="461.25" y="44">)</text></g></g><path d="M475.5 40h20" /></g></g><path d="M495.5 40h10" /><path d="M 505.5 40 h 20 m -10 -10 v 20 m 10 -20 v 20"></path></g></svg>