<svg xmlns="http://www.w3.org/2000/svg" class="railroad-diagram" height="71" viewBox="0 0 521.0 71" width="521.0">
<style>
svg.railroad-diagram { background: #fafafa; }
svg.railroad-diagram path { stroke-width: 2; stroke: #333; fill: none; }
svg.railroad-diagram text {
    font: bold 14px monospace; fill: #333;
    text-anchor: middle;
}
svg.railroad-diagram text.comment { font: italic 12px monospace; fill: #888; }
svg.railroad-diagram rect { stroke-width: 2; stroke: #333; fill: #fff; }
svg.railroad-diagram rect.group-box {
    stroke: #aaa; stroke-dasharray: 4 2; fill: none;
}
</style>
<g transform="translate(.5 .5)">
<g>
<path d="M20 30v20m10 -20v20m-10 -10h20" /></g><path d="M40 40h10" /><g>
<path d="M50 40h0.0" /><path d="M471.0 40h0.0" /><g class="terminal ">
<path d="M50.0 40h0.0" /><path d="M163.5 40h0.0" /><rect height="22" rx="10" ry="10" width="113.5" x="50" y="29"></rect><text x="106.75" y="44">constructor</text></g><path d="M163.5 40h10" /><path d="M173.5 40h10" /><g class="terminal ">
<path d="M183.5 40h0.0" /><path d="M212.0 40h0.0" /><rect height="22" rx="10" ry="10" width="28.5" x="183.5" y="29"></rect><text x="197.75" y="44">(</text></g><path d="M212.0 40h10" /><g>
<path d="M222.0 40h0.0" /><path d="M358.5 40h0.0" /><path d="M222.0 40a10 10 0 0 0 10 -10v0a10 10 0 0 1 10 -10" /><g>
<path d="M242.0 20h96.5" /></g><path d="M338.5 20a10 10 0 0 1 10 10v0a10 10 0 0 0 10 10" /><path d="M222.0 40h20" /><g class="non-terminal ">
<path d="M242.0 40h0.0" /><path d="M338.5 40h0.0" /><rect height="22" width="96.5" x="242" y="29"></rect><text x="290.25" y="44">ParamList</text></g><path d="M338.5 40h20" /></g><path d="M358.5 40h10" /><g class="terminal ">
<path d="M368.5 40h0.0" /><path d="M397.0 40h0.0" /><rect height="22" rx="10" ry="10" width="28.5" x="368.5" y="29"></rect><text x="382.75" y="44">)</text></g><path d="M397.0 40h10" /><path d="M407.0 40h10" /><g class="non-terminal ">
<path d="M417.0 40h0.0" /><path d="M471.0 40h0.0" /><rect height="22" width="54" x="417" y="29"></rect><text x="444" y="44">Body</text></g></g><path d="M471.0 40h10" /><path d="M 481.0 40 h 20 m -10 -10 v 20 m 10 -20 v 20"></path></g></svg>