<svg xmlns="http://www.w3.org/2000/svg" class="railroad-diagram" height="80" viewBox="0 0 762.5 80" width="762.5">
<style>
svg.railroad-diagram { background: #fafafa; }
svg.railroad-diagram path { stroke-width: 2; stroke: #333; fill: none; }
svg.railroad-diagram text {
    font: bold 14px monospace; fill: #333;
    text-anchor: middle;
}
svg.railroad-diagram text.comment { font: italic 12px monospace; fill: #888; }
svg.railroad-diagram rect { stroke-width: 2; stroke: #333; fill: #fff; }
svg.railroad-diagram rect.group-box {
    stroke: #aaa; stroke-dasharray: 4 2; fill: none;
}
</style>
<g transform="translate(.5 .5)">
<g>
<path d="M20 30v20m10 -20v20m-10 -10h20" /></g><path d="M40 40h10" /><g>
<path d="M50 40h0.0" /><path d="M712.5 40h0.0" /><g class="terminal ">
<path d="M50.0 40h0.0" /><path d="M138.0 40h0.0" /><rect height="22" rx="10" ry="10" width="88" x="50" y="29"></rect><text x="94" y="44">contract</text></g><path d="M138.0 40h10" /><path d="M148.0 40h10" /><g class="non-terminal ">
<path d="M158.0 40h0.0" /><path d="M263.0 40h0.0" /><rect height="22" width="105" x="158" y="29"></rect><text x="210.5" y="44">Identifier</text></g><path d="M263.0 40h10" /><g>
<path d="M273.0 40h0.0" /><path d="M443.5 40h0.0" /><path d="M273.0 40a10 10 0 0 0 10 -10v0a10 10 0 0 1 10 -10" /><g>
<path d="M293.0 20h130.5" /></g><path d="M423.5 20a10 10 0 0 1 10 10v0a10 10 0 0 0 10 10" /><path d="M273.0 40h20" /><g class="non-terminal ">
<path d="M293.0 40h0.0" /><path d="M423.5 40h0.0" /><rect height="22" width="130.5" x="293" y="29"></rect><text x="358.25" y="44">TypeVarParams</text></g><path d="M423.5 40h20" /></g><path d="M443.5 40h10" /><g class="terminal ">
<path d="M453.5 40h0.0" /><path d="M482.0 40h0.0" /><rect height="22" rx="10" ry="10" width="28.5" x="453.5" y="29"></rect><text x="467.75" y="44">{</text></g><path d="M482.0 40h10" /><g>
<path d="M492.0 40h0.0" /><path d="M674.0 40h0.0" /><path d="M492.0 40a10 10 0 0 0 10 -10v0a10 10 0 0 1 10 -10" /><g>
<path d="M512.0 20h142.0" /></g><path d="M654.0 20a10 10 0 0 1 10 10v0a10 10 0 0 0 10 10" /><path d="M492.0 40h20" /><g>
<path d="M512.0 40h0.0" /><path d="M654.0 40h0.0" /><path d="M512.0 40h10" /><g class="non-terminal ">
<path d="M522.0 40h0.0" /><path d="M644.0 40h0.0" /><rect height="22" width="122" x="522" y="29"></rect><text x="583" y="44">ContractDecl</text></g><path d="M644.0 40h10" /><path d="M522.0 40a10 10 0 0 0 -10 10v0a10 10 0 0 0 10 10" /><g>
<path d="M522.0 60h122.0" /></g><path d="M644.0 60a10 10 0 0 0 10 -10v0a10 10 0 0 0 -10 -10" /></g><path d="M654.0 40h20" /></g><path d="M674.0 40h10" /><g class="terminal ">
<path d="M684.0 40h0.0" /><path d="M712.5 40h0.0" /><rect height="22" rx="10" ry="10" width="28.5" x="684" y="29"></rect><text x="698.25" y="44">}</text></g></g><path d="M712.5 40h10" /><path d="M 722.5 40 h 20 m -10 -10 v 20 m 10 -20 v 20"></path></g></svg>