<svg xmlns="http://www.w3.org/2000/svg" class="railroad-diagram" height="152" viewBox="0 0 233.5 152" width="233.5">
<style>
svg.railroad-diagram { background: #fafafa; }
svg.railroad-diagram path { stroke-width: 2; stroke: #333; fill: none; }
svg.railroad-diagram text {
    font: bold 14px monospace; fill: #333;
    text-anchor: middle;
}
svg.railroad-diagram text.comment { font: italic 12px monospace; fill: #888; }
svg.railroad-diagram rect { stroke-width: 2; stroke: #333; fill: #fff; }
svg.railroad-diagram rect.group-box {
    stroke: #aaa; stroke-dasharray: 4 2; fill: none;
}
</style>
<g transform="translate(.5 .5)">
<g>
<path d="M20 21v20m10 -20v20m-10 -10h20" /></g><g>
<path d="M40 31h0.0" /><path d="M193.5 31h0.0" /><path d="M40.0 31h20" /><g class="non-terminal ">
<path d="M60.0 31h8.5" /><path d="M165.0 31h8.5" /><rect height="22" width="96.5" x="68.5" y="20"></rect><text x="116.75" y="35">FieldDecl</text></g><path d="M173.5 31h20" /><path d="M40.0 31a10 10 0 0 1 10 10v10a10 10 0 0 0 10 10" /><g class="non-terminal ">
<path d="M60.0 61h17.0" /><path d="M156.5 61h17.0" /><rect height="22" width="79.5" x="77" y="50"></rect><text x="116.75" y="65">DataDef</text></g><path d="M173.5 61a10 10 0 0 0 10 -10v-10a10 10 0 0 1 10 -10" /><path d="M40.0 31a10 10 0 0 1 10 10v40a10 10 0 0 0 10 10" /><g class="non-terminal ">
<path d="M60.0 91h12.75" /><path d="M160.75 91h12.75" /><rect height="22" width="88" x="72.75" y="80"></rect><text x="116.75" y="95">Function</text></g><path d="M173.5 91a10 10 0 0 0 10 -10v-40a10 10 0 0 1 10 -10" /><path d="M40.0 31a10 10 0 0 1 10 10v70a10 10 0 0 0 10 10" /><g class="non-terminal ">
<path d="M60.0 121h0.0" /><path d="M173.5 121h0.0" /><rect height="22" width="113.5" x="60" y="110"></rect><text x="116.75" y="125">Constructor</text></g><path d="M173.5 121a10 10 0 0 0 10 -10v-70a10 10 0 0 1 10 -10" /></g><path d="M 193.5 31 h 20 m -10 -10 v 20 m 10 -20 v 20"></path></g></svg>