<svg xmlns="http://www.w3.org/2000/svg" class="railroad-diagram" height="71" viewBox="0 0 700.0 71" width="700.0">
<style>
svg.railroad-diagram { background: #fafafa; }
svg.railroad-diagram path { stroke-width: 2; stroke: #333; fill: none; }
svg.railroad-diagram text {
    font: bold 14px monospace; fill: #333;
    text-anchor: middle;
}
svg.railroad-diagram text.comment { font: italic 12px monospace; fill: #888; }
svg.railroad-diagram rect { stroke-width: 2; stroke: #333; fill: #fff; }
svg.railroad-diagram rect.group-box {
    stroke: #aaa; stroke-dasharray: 4 2; fill: none;
}
</style>
<g transform="translate(.5 .5)">
<g>
<path d="M20 30v20m10 -20v20m-10 -10h20" /></g><path d="M40 40h10" /><g>
<path d="M50 40h0.0" /><path d="M650.0 40h0.0" /><g class="terminal ">
<path d="M50.0 40h0.0" /><path d="M104.0 40h0.0" /><rect height="22" rx="10" ry="10" width="54" x="50" y="29"></rect><text x="77" y="44">data</text></g><path d="M104.0 40h10" /><path d="M114.0 40h10" /><g class="non-terminal ">
<path d="M124.0 40h0.0" /><path d="M229.0 40h0.0" /><rect height="22" width="105" x="124" y="29"></rect><text x="176.5" y="44">Identifier</text></g><path d="M229.0 40h10" /><g>
<path d="M239.0 40h0.0" /><path d="M409.5 40h0.0" /><path d="M239.0 40a10 10 0 0 0 10 -10v0a10 10 0 0 1 10 -10" /><g>
<path d="M259.0 20h130.5" /></g><path d="M389.5 20a10 10 0 0 1 10 10v0a10 10 0 0 0 10 10" /><path d="M239.0 40h20" /><g class="non-terminal ">
<path d="M259.0 40h0.0" /><path d="M389.5 40h0.0" /><rect height="22" width="130.5" x="259" y="29"></rect><text x="324.25" y="44">TypeVarParams</text></g><path d="M389.5 40h20" /></g><g>
<path d="M409.5 40h0.0" /><path d="M611.5 40h0.0" /><path d="M409.5 40a10 10 0 0 0 10 -10v0a10 10 0 0 1 10 -10" /><g>
<path d="M429.5 20h162.0" /></g><path d="M591.5 20a10 10 0 0 1 10 10v0a10 10 0 0 0 10 10" /><path d="M409.5 40h20" /><g>
<path d="M429.5 40h0.0" /><path d="M591.5 40h0.0" /><g class="terminal ">
<path d="M429.5 40h0.0" /><path d="M458.0 40h0.0" /><rect height="22" rx="10" ry="10" width="28.5" x="429.5" y="29"></rect><text x="443.75" y="44">=</text></g><path d="M458.0 40h10" /><path d="M468.0 40h10" /><g class="non-terminal ">
<path d="M478.0 40h0.0" /><path d="M591.5 40h0.0" /><rect height="22" width="113.5" x="478" y="29"></rect><text x="534.75" y="44">DataConstrs</text></g></g><path d="M591.5 40h20" /></g><path d="M611.5 40h10" /><g class="terminal ">
<path d="M621.5 40h0.0" /><path d="M650.0 40h0.0" /><rect height="22" rx="10" ry="10" width="28.5" x="621.5" y="29"></rect><text x="635.75" y="44">;</text></g></g><path d="M650.0 40h10" /><path d="M 660.0 40 h 20 m -10 -10 v 20 m 10 -20 v 20"></path></g></svg>