<svg xmlns="http://www.w3.org/2000/svg" class="railroad-diagram" height="80" viewBox="0 0 443.0 80" width="443.0">
<style>
svg.railroad-diagram { background: #fafafa; }
svg.railroad-diagram path { stroke-width: 2; stroke: #333; fill: none; }
svg.railroad-diagram text {
    font: bold 14px monospace; fill: #333;
    text-anchor: middle;
}
svg.railroad-diagram text.comment { font: italic 12px monospace; fill: #888; }
svg.railroad-diagram rect { stroke-width: 2; stroke: #333; fill: #fff; }
svg.railroad-diagram rect.group-box {
    stroke: #aaa; stroke-dasharray: 4 2; fill: none;
}
</style>
<g transform="translate(.5 .5)">
<g>
<path d="M20 30v20m10 -20v20m-10 -10h20" /></g><path d="M40 40h10" /><g>
<path d="M50 40h0.0" /><path d="M393.0 40h0.0" /><g class="terminal ">
<path d="M50.0 40h0.0" /><path d="M78.5 40h0.0" /><rect height="22" rx="10" ry="10" width="28.5" x="50" y="29"></rect><text x="64.25" y="44">|</text></g><path d="M78.5 40h10" /><path d="M88.5 40h10" /><g class="non-terminal ">
<path d="M98.5 40h0.0" /><path d="M212.0 40h0.0" /><rect height="22" width="113.5" x="98.5" y="29"></rect><text x="155.25" y="44">PatternList</text></g><path d="M212.0 40h10" /><path d="M222.0 40h10" /><g class="terminal ">
<path d="M232.0 40h0.0" /><path d="M269.0 40h0.0" /><rect height="22" rx="10" ry="10" width="37" x="232" y="29"></rect><text x="250.5" y="44">=></text></g><path d="M269.0 40h10" /><g>
<path d="M279.0 40h0.0" /><path d="M393.0 40h0.0" /><path d="M279.0 40a10 10 0 0 0 10 -10v0a10 10 0 0 1 10 -10" /><g>
<path d="M299.0 20h74.0" /></g><path d="M373.0 20a10 10 0 0 1 10 10v0a10 10 0 0 0 10 10" /><path d="M279.0 40h20" /><g>
<path d="M299.0 40h0.0" /><path d="M373.0 40h0.0" /><path d="M299.0 40h10" /><g class="non-terminal ">
<path d="M309.0 40h0.0" /><path d="M363.0 40h0.0" /><rect height="22" width="54" x="309" y="29"></rect><text x="336" y="44">Stmt</text></g><path d="M363.0 40h10" /><path d="M309.0 40a10 10 0 0 0 -10 10v0a10 10 0 0 0 10 10" /><g>
<path d="M309.0 60h54.0" /></g><path d="M363.0 60a10 10 0 0 0 10 -10v0a10 10 0 0 0 -10 -10" /></g><path d="M373.0 40h20" /></g></g><path d="M393.0 40h10" /><path d="M 403.0 40 h 20 m -10 -10 v 20 m 10 -20 v 20"></path></g></svg>