<svg xmlns="http://www.w3.org/2000/svg" class="railroad-diagram" height="182" viewBox="0 0 544.0 182" width="544.0">
<style>
svg.railroad-diagram { background: #fafafa; }
svg.railroad-diagram path { stroke-width: 2; stroke: #333; fill: none; }
svg.railroad-diagram text {
    font: bold 14px monospace; fill: #333;
    text-anchor: middle;
}
svg.railroad-diagram text.comment { font: italic 12px monospace; fill: #888; }
svg.railroad-diagram rect { stroke-width: 2; stroke: #333; fill: #fff; }
svg.railroad-diagram rect.group-box {
    stroke: #aaa; stroke-dasharray: 4 2; fill: none;
}
</style>
<g transform="translate(.5 .5)">
<g>
<path d="M20 21v20m10 -20v20m-10 -10h20" /></g><g>
<path d="M40 31h0.0" /><path d="M504.0 31h0.0" /><path d="M40.0 31h20" /><g class="terminal ">
<path d="M60.0 31h197.75" /><path d="M286.25 31h197.75" /><rect height="22" rx="10" ry="10" width="28.5" x="257.75" y="20"></rect><text x="272" y="35">*</text></g><path d="M484.0 31h20" /><path d="M40.0 31a10 10 0 0 1 10 10v10a10 10 0 0 0 10 10" /><g class="non-terminal ">
<path d="M60.0 61h159.5" /><path d="M324.5 61h159.5" /><rect height="22" width="105" x="219.5" y="50"></rect><text x="272" y="65">Identifier</text></g><path d="M484.0 61a10 10 0 0 0 10 -10v-10a10 10 0 0 1 10 -10" /><path d="M40.0 31a10 10 0 0 1 10 10v40a10 10 0 0 0 10 10" /><g>
<path d="M60.0 91h14.5" /><path d="M469.5 91h14.5" /><g class="non-terminal ">
<path d="M74.5 91h0.0" /><path d="M179.5 91h0.0" /><rect height="22" width="105" x="74.5" y="80"></rect><text x="127" y="95">Identifier</text></g><path d="M179.5 91h10" /><path d="M189.5 91h10" /><g class="terminal ">
<path d="M199.5 91h0.0" /><path d="M228.0 91h0.0" /><rect height="22" rx="10" ry="10" width="28.5" x="199.5" y="80"></rect><text x="213.75" y="95">(</text></g><path d="M228.0 91h10" /><path d="M238.0 91h10" /><g class="non-terminal ">
<path d="M248.0 91h0.0" /><path d="M421.0 91h0.0" /><rect height="22" width="173" x="248" y="80"></rect><text x="334.5" y="95">ExportConstructors</text></g><path d="M421.0 91h10" /><path d="M431.0 91h10" /><g class="terminal ">
<path d="M441.0 91h0.0" /><path d="M469.5 91h0.0" /><rect height="22" rx="10" ry="10" width="28.5" x="441" y="80"></rect><text x="455.25" y="95">)</text></g></g><path d="M484.0 91a10 10 0 0 0 10 -10v-40a10 10 0 0 1 10 -10" /><path d="M40.0 31a10 10 0 0 1 10 10v70a10 10 0 0 0 10 10" /><g>
<path d="M60.0 121h111.0" /><path d="M373.0 121h111.0" /><g class="non-terminal ">
<path d="M171.0 121h0.0" /><path d="M276.0 121h0.0" /><rect height="22" width="105" x="171" y="110"></rect><text x="223.5" y="125">ModulePath</text></g><path d="M276.0 121h10" /><path d="M286.0 121h10" /><g class="terminal ">
<path d="M296.0 121h0.0" /><path d="M324.5 121h0.0" /><rect height="22" rx="10" ry="10" width="28.5" x="296" y="110"></rect><text x="310.25" y="125">.</text></g><path d="M324.5 121h10" /><path d="M334.5 121h10" /><g class="terminal ">
<path d="M344.5 121h0.0" /><path d="M373.0 121h0.0" /><rect height="22" rx="10" ry="10" width="28.5" x="344.5" y="110"></rect><text x="358.75" y="125">*</text></g></g><path d="M484.0 121a10 10 0 0 0 10 -10v-70a10 10 0 0 1 10 -10" /><path d="M40.0 31a10 10 0 0 1 10 10v100a10 10 0 0 0 10 10" /><g>
<path d="M60.0 151h0.0" /><path d="M484.0 151h0.0" /><g class="terminal ">
<path d="M60.0 151h0.0" /><path d="M88.5 151h0.0" /><rect height="22" rx="10" ry="10" width="28.5" x="60" y="140"></rect><text x="74.25" y="155">@</text></g><path d="M88.5 151h10" /><path d="M98.5 151h10" /><g class="non-terminal ">
<path d="M108.5 151h0.0" /><path d="M213.5 151h0.0" /><rect height="22" width="105" x="108.5" y="140"></rect><text x="161" y="155">Identifier</text></g><path d="M213.5 151h10" /><path d="M223.5 151h10" /><g class="terminal ">
<path d="M233.5 151h0.0" /><path d="M262.0 151h0.0" /><rect height="22" rx="10" ry="10" width="28.5" x="233.5" y="140"></rect><text x="247.75" y="155">.</text></g><path d="M262.0 151h10" /><path d="M272.0 151h10" /><g class="non-terminal ">
<path d="M282.0 151h0.0" /><path d="M387.0 151h0.0" /><rect height="22" width="105" x="282" y="140"></rect><text x="334.5" y="155">ModulePath</text></g><path d="M387.0 151h10" /><path d="M397.0 151h10" /><g class="terminal ">
<path d="M407.0 151h0.0" /><path d="M435.5 151h0.0" /><rect height="22" rx="10" ry="10" width="28.5" x="407" y="140"></rect><text x="421.25" y="155">.</text></g><path d="M435.5 151h10" /><path d="M445.5 151h10" /><g class="terminal ">
<path d="M455.5 151h0.0" /><path d="M484.0 151h0.0" /><rect height="22" rx="10" ry="10" width="28.5" x="455.5" y="140"></rect><text x="469.75" y="155">*</text></g></g><path d="M484.0 151a10 10 0 0 0 10 -10v-100a10 10 0 0 1 10 -10" /></g><path d="M 504.0 31 h 20 m -10 -10 v 20 m 10 -20 v 20"></path></g></svg>