<svg xmlns="http://www.w3.org/2000/svg" class="railroad-diagram" height="110" viewBox="0 0 448.5 110" width="448.5">
<style>
svg.railroad-diagram { background: #fafafa; }
svg.railroad-diagram path { stroke-width: 2; stroke: #333; fill: none; }
svg.railroad-diagram text {
    font: bold 14px monospace; fill: #333;
    text-anchor: middle;
}
svg.railroad-diagram text.comment { font: italic 12px monospace; fill: #888; }
svg.railroad-diagram rect { stroke-width: 2; stroke: #333; fill: #fff; }
svg.railroad-diagram rect.group-box {
    stroke: #aaa; stroke-dasharray: 4 2; fill: none;
}
</style>
<g transform="translate(.5 .5)">
<g>
<path d="M20 21v20m10 -20v20m-10 -10h20" /></g><g>
<path d="M40 31h0.0" /><path d="M408.5 31h0.0" /><path d="M40.0 31h20" /><g class="terminal ">
<path d="M60.0 31h150.0" /><path d="M238.5 31h150.0" /><rect height="22" rx="10" ry="10" width="28.5" x="210" y="20"></rect><text x="224.25" y="35">*</text></g><path d="M388.5 31h20" /><path d="M40.0 31a10 10 0 0 1 10 10v19a10 10 0 0 0 10 10" /><g>
<path d="M60.0 70h0.0" /><path d="M388.5 70h0.0" /><g class="non-terminal ">
<path d="M60.0 70h0.0" /><path d="M165.0 70h0.0" /><rect height="22" width="105" x="60" y="59"></rect><text x="112.5" y="74">Identifier</text></g><path d="M165.0 70h10" /><g>
<path d="M175.0 70h0.0" /><path d="M388.5 70h0.0" /><path d="M175.0 70a10 10 0 0 0 10 -10v0a10 10 0 0 1 10 -10" /><g>
<path d="M195.0 50h173.5" /></g><path d="M368.5 50a10 10 0 0 1 10 10v0a10 10 0 0 0 10 10" /><path d="M175.0 70h20" /><g>
<path d="M195.0 70h0.0" /><path d="M368.5 70h0.0" /><path d="M195.0 70h10" /><g>
<path d="M205.0 70h0.0" /><path d="M358.5 70h0.0" /><g class="terminal ">
<path d="M205.0 70h0.0" /><path d="M233.5 70h0.0" /><rect height="22" rx="10" ry="10" width="28.5" x="205" y="59"></rect><text x="219.25" y="74">,</text></g><path d="M233.5 70h10" /><path d="M243.5 70h10" /><g class="non-terminal ">
<path d="M253.5 70h0.0" /><path d="M358.5 70h0.0" /><rect height="22" width="105" x="253.5" y="59"></rect><text x="306" y="74">Identifier</text></g></g><path d="M358.5 70h10" /><path d="M205.0 70a10 10 0 0 0 -10 10v0a10 10 0 0 0 10 10" /><g>
<path d="M205.0 90h153.5" /></g><path d="M358.5 90a10 10 0 0 0 10 -10v0a10 10 0 0 0 -10 -10" /></g><path d="M368.5 70h20" /></g></g><path d="M388.5 70a10 10 0 0 0 10 -10v-19a10 10 0 0 1 10 -10" /></g><path d="M 408.5 31 h 20 m -10 -10 v 20 m 10 -20 v 20"></path></g></svg>