<svg xmlns="http://www.w3.org/2000/svg" class="railroad-diagram" height="122" viewBox="0 0 515.0 122" width="515.0">
<style>
svg.railroad-diagram { background: #fafafa; }
svg.railroad-diagram path { stroke-width: 2; stroke: #333; fill: none; }
svg.railroad-diagram text {
    font: bold 14px monospace; fill: #333;
    text-anchor: middle;
}
svg.railroad-diagram text.comment { font: italic 12px monospace; fill: #888; }
svg.railroad-diagram rect { stroke-width: 2; stroke: #333; fill: #fff; }
svg.railroad-diagram rect.group-box {
    stroke: #aaa; stroke-dasharray: 4 2; fill: none;
}
</style>
<g transform="translate(.5 .5)">
<g>
<path d="M20 21v20m10 -20v20m-10 -10h20" /></g><g>
<path d="M40 31h0.0" /><path d="M475.0 31h0.0" /><path d="M40.0 31h20" /><g class="terminal ">
<path d="M60.0 31h183.25" /><path d="M271.75 31h183.25" /><rect height="22" rx="10" ry="10" width="28.5" x="243.25" y="20"></rect><text x="257.5" y="35">*</text></g><path d="M455.0 31h20" /><path d="M40.0 31a10 10 0 0 1 10 10v10a10 10 0 0 0 10 10" /><g class="non-terminal ">
<path d="M60.0 61h145.0" /><path d="M310.0 61h145.0" /><rect height="22" width="105" x="205" y="50"></rect><text x="257.5" y="65">Identifier</text></g><path d="M455.0 61a10 10 0 0 0 10 -10v-10a10 10 0 0 1 10 -10" /><path d="M40.0 31a10 10 0 0 1 10 10v40a10 10 0 0 0 10 10" /><g>
<path d="M60.0 91h0.0" /><path d="M455.0 91h0.0" /><g class="non-terminal ">
<path d="M60.0 91h0.0" /><path d="M165.0 91h0.0" /><rect height="22" width="105" x="60" y="80"></rect><text x="112.5" y="95">Identifier</text></g><path d="M165.0 91h10" /><path d="M175.0 91h10" /><g class="terminal ">
<path d="M185.0 91h0.0" /><path d="M213.5 91h0.0" /><rect height="22" rx="10" ry="10" width="28.5" x="185" y="80"></rect><text x="199.25" y="95">(</text></g><path d="M213.5 91h10" /><path d="M223.5 91h10" /><g class="non-terminal ">
<path d="M233.5 91h0.0" /><path d="M406.5 91h0.0" /><rect height="22" width="173" x="233.5" y="80"></rect><text x="320" y="95">ExportConstructors</text></g><path d="M406.5 91h10" /><path d="M416.5 91h10" /><g class="terminal ">
<path d="M426.5 91h0.0" /><path d="M455.0 91h0.0" /><rect height="22" rx="10" ry="10" width="28.5" x="426.5" y="80"></rect><text x="440.75" y="95">)</text></g></g><path d="M455.0 91a10 10 0 0 0 10 -10v-40a10 10 0 0 1 10 -10" /></g><path d="M 475.0 31 h 20 m -10 -10 v 20 m 10 -20 v 20"></path></g></svg>