<svg xmlns="http://www.w3.org/2000/svg" class="railroad-diagram" height="80" viewBox="0 0 496.5 80" width="496.5">
<style>
svg.railroad-diagram { background: #fafafa; }
svg.railroad-diagram path { stroke-width: 2; stroke: #333; fill: none; }
svg.railroad-diagram text {
    font: bold 14px monospace; fill: #333;
    text-anchor: middle;
}
svg.railroad-diagram text.comment { font: italic 12px monospace; fill: #888; }
svg.railroad-diagram rect { stroke-width: 2; stroke: #333; fill: #fff; }
svg.railroad-diagram rect.group-box {
    stroke: #aaa; stroke-dasharray: 4 2; fill: none;
}
</style>
<g transform="translate(.5 .5)">
<g>
<path d="M20 30v20m10 -20v20m-10 -10h20" /></g><path d="M40 40h10" /><g>
<path d="M50 40h0.0" /><path d="M446.5 40h0.0" /><g class="non-terminal ">
<path d="M50.0 40h0.0" /><path d="M189.0 40h0.0" /><rect height="22" width="139" x="50" y="29"></rect><text x="119.5" y="44">ExportFromItem</text></g><path d="M189.0 40h10" /><g>
<path d="M199.0 40h0.0" /><path d="M446.5 40h0.0" /><path d="M199.0 40a10 10 0 0 0 10 -10v0a10 10 0 0 1 10 -10" /><g>
<path d="M219.0 20h207.5" /></g><path d="M426.5 20a10 10 0 0 1 10 10v0a10 10 0 0 0 10 10" /><path d="M199.0 40h20" /><g>
<path d="M219.0 40h0.0" /><path d="M426.5 40h0.0" /><path d="M219.0 40h10" /><g>
<path d="M229.0 40h0.0" /><path d="M416.5 40h0.0" /><g class="terminal ">
<path d="M229.0 40h0.0" /><path d="M257.5 40h0.0" /><rect height="22" rx="10" ry="10" width="28.5" x="229" y="29"></rect><text x="243.25" y="44">,</text></g><path d="M257.5 40h10" /><path d="M267.5 40h10" /><g class="non-terminal ">
<path d="M277.5 40h0.0" /><path d="M416.5 40h0.0" /><rect height="22" width="139" x="277.5" y="29"></rect><text x="347" y="44">ExportFromItem</text></g></g><path d="M416.5 40h10" /><path d="M229.0 40a10 10 0 0 0 -10 10v0a10 10 0 0 0 10 10" /><g>
<path d="M229.0 60h187.5" /></g><path d="M416.5 60a10 10 0 0 0 10 -10v0a10 10 0 0 0 -10 -10" /></g><path d="M426.5 40h20" /></g></g><path d="M446.5 40h10" /><path d="M 456.5 40 h 20 m -10 -10 v 20 m 10 -20 v 20"></path></g></svg>