<svg xmlns="http://www.w3.org/2000/svg" class="railroad-diagram" height="80" viewBox="0 0 326.5 80" width="326.5">
<style>
svg.railroad-diagram { background: #fafafa; }
svg.railroad-diagram path { stroke-width: 2; stroke: #333; fill: none; }
svg.railroad-diagram text {
    font: bold 14px monospace; fill: #333;
    text-anchor: middle;
}
svg.railroad-diagram text.comment { font: italic 12px monospace; fill: #888; }
svg.railroad-diagram rect { stroke-width: 2; stroke: #333; fill: #fff; }
svg.railroad-diagram rect.group-box {
    stroke: #aaa; stroke-dasharray: 4 2; fill: none;
}
</style>
<g transform="translate(.5 .5)">
<g>
<path d="M20 30v20m10 -20v20m-10 -10h20" /></g><path d="M40 40h10" /><g>
<path d="M50 40h0.0" /><path d="M276.5 40h0.0" /><g class="non-terminal ">
<path d="M50.0 40h0.0" /><path d="M104.0 40h0.0" /><rect height="22" width="54" x="50" y="29"></rect><text x="77" y="44">Expr</text></g><path d="M104.0 40h10" /><g>
<path d="M114.0 40h0.0" /><path d="M276.5 40h0.0" /><path d="M114.0 40a10 10 0 0 0 10 -10v0a10 10 0 0 1 10 -10" /><g>
<path d="M134.0 20h122.5" /></g><path d="M256.5 20a10 10 0 0 1 10 10v0a10 10 0 0 0 10 10" /><path d="M114.0 40h20" /><g>
<path d="M134.0 40h0.0" /><path d="M256.5 40h0.0" /><path d="M134.0 40h10" /><g>
<path d="M144.0 40h0.0" /><path d="M246.5 40h0.0" /><g class="terminal ">
<path d="M144.0 40h0.0" /><path d="M172.5 40h0.0" /><rect height="22" rx="10" ry="10" width="28.5" x="144" y="29"></rect><text x="158.25" y="44">,</text></g><path d="M172.5 40h10" /><path d="M182.5 40h10" /><g class="non-terminal ">
<path d="M192.5 40h0.0" /><path d="M246.5 40h0.0" /><rect height="22" width="54" x="192.5" y="29"></rect><text x="219.5" y="44">Expr</text></g></g><path d="M246.5 40h10" /><path d="M144.0 40a10 10 0 0 0 -10 10v0a10 10 0 0 0 10 10" /><g>
<path d="M144.0 60h102.5" /></g><path d="M246.5 60a10 10 0 0 0 10 -10v0a10 10 0 0 0 -10 -10" /></g><path d="M256.5 40h20" /></g></g><path d="M276.5 40h10" /><path d="M 286.5 40 h 20 m -10 -10 v 20 m 10 -20 v 20"></path></g></svg>