<svg xmlns="http://www.w3.org/2000/svg" class="railroad-diagram" height="956" viewBox="0 0 624.0 956" width="624.0">
<style>
svg.railroad-diagram { background: #fafafa; }
svg.railroad-diagram path { stroke-width: 2; stroke: #333; fill: none; }
svg.railroad-diagram text {
    font: bold 14px monospace; fill: #333;
    text-anchor: middle;
}
svg.railroad-diagram text.comment { font: italic 12px monospace; fill: #888; }
svg.railroad-diagram rect { stroke-width: 2; stroke: #333; fill: #fff; }
svg.railroad-diagram rect.group-box {
    stroke: #aaa; stroke-dasharray: 4 2; fill: none;
}
</style>
<g transform="translate(.5 .5)">
<g>
<path d="M20 30v20m10 -20v20m-10 -10h20" /></g><g>
<path d="M40 40h0.0" /><path d="M584.0 40h0.0" /><path d="M40.0 40h20" /><g>
<path d="M60.0 40h87.0" /><path d="M477.0 40h87.0" /><g class="non-terminal ">
<path d="M147.0 40h0.0" /><path d="M252.0 40h0.0" /><rect height="22" width="105" x="147" y="29"></rect><text x="199.5" y="44">Identifier</text></g><path d="M252.0 40h10" /><path d="M262.0 40h10" /><g class="terminal ">
<path d="M272.0 40h0.0" /><path d="M300.5 40h0.0" /><rect height="22" rx="10" ry="10" width="28.5" x="272" y="29"></rect><text x="286.25" y="44">(</text></g><path d="M300.5 40h10" /><g>
<path d="M310.5 40h0.0" /><path d="M438.5 40h0.0" /><path d="M310.5 40a10 10 0 0 0 10 -10v0a10 10 0 0 1 10 -10" /><g>
<path d="M330.5 20h88.0" /></g><path d="M418.5 20a10 10 0 0 1 10 10v0a10 10 0 0 0 10 10" /><path d="M310.5 40h20" /><g class="non-terminal ">
<path d="M330.5 40h0.0" /><path d="M418.5 40h0.0" /><rect height="22" width="88" x="330.5" y="29"></rect><text x="374.5" y="44">ExprList</text></g><path d="M418.5 40h20" /></g><path d="M438.5 40h10" /><g class="terminal ">
<path d="M448.5 40h0.0" /><path d="M477.0 40h0.0" /><rect height="22" rx="10" ry="10" width="28.5" x="448.5" y="29"></rect><text x="462.75" y="44">)</text></g></g><path d="M564.0 40h20" /><path d="M40.0 40a10 10 0 0 1 10 10v19a10 10 0 0 0 10 10" /><g>
<path d="M60.0 79h25.75" /><path d="M538.25 79h25.75" /><g class="non-terminal ">
<path d="M85.75 79h0.0" /><path d="M139.75 79h0.0" /><rect height="22" width="54" x="85.75" y="68"></rect><text x="112.75" y="83">Expr</text></g><path d="M139.75 79h10" /><path d="M149.75 79h10" /><g class="terminal ">
<path d="M159.75 79h0.0" /><path d="M188.25 79h0.0" /><rect height="22" rx="10" ry="10" width="28.5" x="159.75" y="68"></rect><text x="174" y="83">.</text></g><path d="M188.25 79h10" /><path d="M198.25 79h10" /><g class="non-terminal ">
<path d="M208.25 79h0.0" /><path d="M313.25 79h0.0" /><rect height="22" width="105" x="208.25" y="68"></rect><text x="260.75" y="83">Identifier</text></g><path d="M313.25 79h10" /><path d="M323.25 79h10" /><g class="terminal ">
<path d="M333.25 79h0.0" /><path d="M361.75 79h0.0" /><rect height="22" rx="10" ry="10" width="28.5" x="333.25" y="68"></rect><text x="347.5" y="83">(</text></g><path d="M361.75 79h10" /><g>
<path d="M371.75 79h0.0" /><path d="M499.75 79h0.0" /><path d="M371.75 79a10 10 0 0 0 10 -10v0a10 10 0 0 1 10 -10" /><g>
<path d="M391.75 59h88.0" /></g><path d="M479.75 59a10 10 0 0 1 10 10v0a10 10 0 0 0 10 10" /><path d="M371.75 79h20" /><g class="non-terminal ">
<path d="M391.75 79h0.0" /><path d="M479.75 79h0.0" /><rect height="22" width="88" x="391.75" y="68"></rect><text x="435.75" y="83">ExprList</text></g><path d="M479.75 79h20" /></g><path d="M499.75 79h10" /><g class="terminal ">
<path d="M509.75 79h0.0" /><path d="M538.25 79h0.0" /><rect height="22" rx="10" ry="10" width="28.5" x="509.75" y="68"></rect><text x="524" y="83">)</text></g></g><path d="M564.0 79a10 10 0 0 0 10 -10v-19a10 10 0 0 1 10 -10" /><path d="M40.0 40a10 10 0 0 1 10 10v49a10 10 0 0 0 10 10" /><g>
<path d="M60.0 109h138.25" /><path d="M425.75 109h138.25" /><g class="non-terminal ">
<path d="M198.25 109h0.0" /><path d="M252.25 109h0.0" /><rect height="22" width="54" x="198.25" y="98"></rect><text x="225.25" y="113">Expr</text></g><path d="M252.25 109h10" /><path d="M262.25 109h10" /><g class="terminal ">
<path d="M272.25 109h0.0" /><path d="M300.75 109h0.0" /><rect height="22" rx="10" ry="10" width="28.5" x="272.25" y="98"></rect><text x="286.5" y="113">.</text></g><path d="M300.75 109h10" /><path d="M310.75 109h10" /><g class="non-terminal ">
<path d="M320.75 109h0.0" /><path d="M425.75 109h0.0" /><rect height="22" width="105" x="320.75" y="98"></rect><text x="373.25" y="113">Identifier</text></g></g><path d="M564.0 109a10 10 0 0 0 10 -10v-49a10 10 0 0 1 10 -10" /><path d="M40.0 40a10 10 0 0 1 10 10v88a10 10 0 0 0 10 10" /><g>
<path d="M60.0 148h62.75" /><path d="M501.25 148h62.75" /><g class="terminal ">
<path d="M122.75 148h0.0" /><path d="M151.25 148h0.0" /><rect height="22" rx="10" ry="10" width="28.5" x="122.75" y="137"></rect><text x="137" y="152">.</text></g><path d="M151.25 148h10" /><path d="M161.25 148h10" /><g class="non-terminal ">
<path d="M171.25 148h0.0" /><path d="M276.25 148h0.0" /><rect height="22" width="105" x="171.25" y="137"></rect><text x="223.75" y="152">Identifier</text></g><path d="M276.25 148h10" /><path d="M286.25 148h10" /><g class="terminal ">
<path d="M296.25 148h0.0" /><path d="M324.75 148h0.0" /><rect height="22" rx="10" ry="10" width="28.5" x="296.25" y="137"></rect><text x="310.5" y="152">(</text></g><path d="M324.75 148h10" /><g>
<path d="M334.75 148h0.0" /><path d="M462.75 148h0.0" /><path d="M334.75 148a10 10 0 0 0 10 -10v0a10 10 0 0 1 10 -10" /><g>
<path d="M354.75 128h88.0" /></g><path d="M442.75 128a10 10 0 0 1 10 10v0a10 10 0 0 0 10 10" /><path d="M334.75 148h20" /><g class="non-terminal ">
<path d="M354.75 148h0.0" /><path d="M442.75 148h0.0" /><rect height="22" width="88" x="354.75" y="137"></rect><text x="398.75" y="152">ExprList</text></g><path d="M442.75 148h20" /></g><path d="M462.75 148h10" /><g class="terminal ">
<path d="M472.75 148h0.0" /><path d="M501.25 148h0.0" /><rect height="22" rx="10" ry="10" width="28.5" x="472.75" y="137"></rect><text x="487" y="152">)</text></g></g><path d="M564.0 148a10 10 0 0 0 10 -10v-88a10 10 0 0 1 10 -10" /><path d="M40.0 40a10 10 0 0 1 10 10v118a10 10 0 0 0 10 10" /><g>
<path d="M60.0 178h175.25" /><path d="M388.75 178h175.25" /><g class="terminal ">
<path d="M235.25 178h0.0" /><path d="M263.75 178h0.0" /><rect height="22" rx="10" ry="10" width="28.5" x="235.25" y="167"></rect><text x="249.5" y="182">.</text></g><path d="M263.75 178h10" /><path d="M273.75 178h10" /><g class="non-terminal ">
<path d="M283.75 178h0.0" /><path d="M388.75 178h0.0" /><rect height="22" width="105" x="283.75" y="167"></rect><text x="336.25" y="182">Identifier</text></g></g><path d="M564.0 178a10 10 0 0 0 10 -10v-118a10 10 0 0 1 10 -10" /><path d="M40.0 40a10 10 0 0 1 10 10v148a10 10 0 0 0 10 10" /><g class="non-terminal ">
<path d="M60.0 208h199.5" /><path d="M364.5 208h199.5" /><rect height="22" width="105" x="259.5" y="197"></rect><text x="312" y="212">Identifier</text></g><path d="M564.0 208a10 10 0 0 0 10 -10v-148a10 10 0 0 1 10 -10" /><path d="M40.0 40a10 10 0 0 1 10 10v178a10 10 0 0 0 10 10" /><g class="non-terminal ">
<path d="M60.0 238h212.25" /><path d="M351.75 238h212.25" /><rect height="22" width="79.5" x="272.25" y="227"></rect><text x="312" y="242">Literal</text></g><path d="M564.0 238a10 10 0 0 0 10 -10v-178a10 10 0 0 1 10 -10" /><path d="M40.0 40a10 10 0 0 1 10 10v208a10 10 0 0 0 10 10" /><g>
<path d="M60.0 268h176.5" /><path d="M387.5 268h176.5" /><g class="terminal ">
<path d="M236.5 268h0.0" /><path d="M265.0 268h0.0" /><rect height="22" rx="10" ry="10" width="28.5" x="236.5" y="257"></rect><text x="250.75" y="272">(</text></g><path d="M265.0 268h10" /><path d="M275.0 268h10" /><g class="non-terminal ">
<path d="M285.0 268h0.0" /><path d="M339.0 268h0.0" /><rect height="22" width="54" x="285" y="257"></rect><text x="312" y="272">Expr</text></g><path d="M339.0 268h10" /><path d="M349.0 268h10" /><g class="terminal ">
<path d="M359.0 268h0.0" /><path d="M387.5 268h0.0" /><rect height="22" rx="10" ry="10" width="28.5" x="359" y="257"></rect><text x="373.25" y="272">)</text></g></g><path d="M564.0 268a10 10 0 0 0 10 -10v-208a10 10 0 0 1 10 -10" /><path d="M40.0 40a10 10 0 0 1 10 10v238a10 10 0 0 0 10 10" /><g>
<path d="M60.0 298h213.5" /><path d="M350.5 298h213.5" /><g class="terminal ">
<path d="M273.5 298h0.0" /><path d="M302.0 298h0.0" /><rect height="22" rx="10" ry="10" width="28.5" x="273.5" y="287"></rect><text x="287.75" y="302">(</text></g><path d="M302.0 298h10" /><path d="M312.0 298h10" /><g class="terminal ">
<path d="M322.0 298h0.0" /><path d="M350.5 298h0.0" /><rect height="22" rx="10" ry="10" width="28.5" x="322" y="287"></rect><text x="336.25" y="302">)</text></g></g><path d="M564.0 298a10 10 0 0 0 10 -10v-238a10 10 0 0 1 10 -10" /><path d="M40.0 40a10 10 0 0 1 10 10v277a10 10 0 0 0 10 10" /><g>
<path d="M60.0 337h34.0" /><path d="M530.0 337h34.0" /><g class="terminal ">
<path d="M94.0 337h0.0" /><path d="M122.5 337h0.0" /><rect height="22" rx="10" ry="10" width="28.5" x="94" y="326"></rect><text x="108.25" y="341">(</text></g><path d="M122.5 337h10" /><path d="M132.5 337h10" /><g class="non-terminal ">
<path d="M142.5 337h0.0" /><path d="M196.5 337h0.0" /><rect height="22" width="54" x="142.5" y="326"></rect><text x="169.5" y="341">Expr</text></g><path d="M196.5 337h10" /><path d="M206.5 337h10" /><g class="terminal ">
<path d="M216.5 337h0.0" /><path d="M245.0 337h0.0" /><rect height="22" rx="10" ry="10" width="28.5" x="216.5" y="326"></rect><text x="230.75" y="341">,</text></g><path d="M245.0 337h10" /><path d="M255.0 337h10" /><g class="non-terminal ">
<path d="M265.0 337h0.0" /><path d="M319.0 337h0.0" /><rect height="22" width="54" x="265" y="326"></rect><text x="292" y="341">Expr</text></g><path d="M319.0 337h10" /><g>
<path d="M329.0 337h0.0" /><path d="M491.5 337h0.0" /><path d="M329.0 337a10 10 0 0 0 10 -10v0a10 10 0 0 1 10 -10" /><g>
<path d="M349.0 317h122.5" /></g><path d="M471.5 317a10 10 0 0 1 10 10v0a10 10 0 0 0 10 10" /><path d="M329.0 337h20" /><g>
<path d="M349.0 337h0.0" /><path d="M471.5 337h0.0" /><path d="M349.0 337h10" /><g>
<path d="M359.0 337h0.0" /><path d="M461.5 337h0.0" /><g class="terminal ">
<path d="M359.0 337h0.0" /><path d="M387.5 337h0.0" /><rect height="22" rx="10" ry="10" width="28.5" x="359" y="326"></rect><text x="373.25" y="341">,</text></g><path d="M387.5 337h10" /><path d="M397.5 337h10" /><g class="non-terminal ">
<path d="M407.5 337h0.0" /><path d="M461.5 337h0.0" /><rect height="22" width="54" x="407.5" y="326"></rect><text x="434.5" y="341">Expr</text></g></g><path d="M461.5 337h10" /><path d="M359.0 337a10 10 0 0 0 -10 10v0a10 10 0 0 0 10 10" /><g>
<path d="M359.0 357h102.5" /></g><path d="M461.5 357a10 10 0 0 0 10 -10v0a10 10 0 0 0 -10 -10" /></g><path d="M471.5 337h20" /></g><path d="M491.5 337h10" /><g class="terminal ">
<path d="M501.5 337h0.0" /><path d="M530.0 337h0.0" /><rect height="22" rx="10" ry="10" width="28.5" x="501.5" y="326"></rect><text x="515.75" y="341">)</text></g></g><path d="M564.0 337a10 10 0 0 0 10 -10v-277a10 10 0 0 1 10 -10" /><path d="M40.0 40a10 10 0 0 1 10 10v325a10 10 0 0 0 10 10" /><g>
<path d="M60.0 385h0.0" /><path d="M564.0 385h0.0" /><g class="terminal ">
<path d="M60.0 385h0.0" /><path d="M105.5 385h0.0" /><rect height="22" rx="10" ry="10" width="45.5" x="60" y="374"></rect><text x="82.75" y="389">lam</text></g><path d="M105.5 385h10" /><path d="M115.5 385h10" /><g class="terminal ">
<path d="M125.5 385h0.0" /><path d="M154.0 385h0.0" /><rect height="22" rx="10" ry="10" width="28.5" x="125.5" y="374"></rect><text x="139.75" y="389">(</text></g><path d="M154.0 385h10" /><g>
<path d="M164.0 385h0.0" /><path d="M300.5 385h0.0" /><path d="M164.0 385a10 10 0 0 0 10 -10v0a10 10 0 0 1 10 -10" /><g>
<path d="M184.0 365h96.5" /></g><path d="M280.5 365a10 10 0 0 1 10 10v0a10 10 0 0 0 10 10" /><path d="M164.0 385h20" /><g class="non-terminal ">
<path d="M184.0 385h0.0" /><path d="M280.5 385h0.0" /><rect height="22" width="96.5" x="184" y="374"></rect><text x="232.25" y="389">ParamList</text></g><path d="M280.5 385h20" /></g><path d="M300.5 385h10" /><g class="terminal ">
<path d="M310.5 385h0.0" /><path d="M339.0 385h0.0" /><rect height="22" rx="10" ry="10" width="28.5" x="310.5" y="374"></rect><text x="324.75" y="389">)</text></g><path d="M339.0 385h10" /><g>
<path d="M349.0 385h0.0" /><path d="M500.0 385h0.0" /><path d="M349.0 385a10 10 0 0 0 10 -10v0a10 10 0 0 1 10 -10" /><g>
<path d="M369.0 365h111.0" /></g><path d="M480.0 365a10 10 0 0 1 10 10v0a10 10 0 0 0 10 10" /><path d="M349.0 385h20" /><g>
<path d="M369.0 385h0.0" /><path d="M480.0 385h0.0" /><g class="terminal ">
<path d="M369.0 385h0.0" /><path d="M406.0 385h0.0" /><rect height="22" rx="10" ry="10" width="37" x="369" y="374"></rect><text x="387.5" y="389">-></text></g><path d="M406.0 385h10" /><path d="M416.0 385h10" /><g class="non-terminal ">
<path d="M426.0 385h0.0" /><path d="M480.0 385h0.0" /><rect height="22" width="54" x="426" y="374"></rect><text x="453" y="389">Type</text></g></g><path d="M480.0 385h20" /></g><path d="M500.0 385h10" /><g class="non-terminal ">
<path d="M510.0 385h0.0" /><path d="M564.0 385h0.0" /><rect height="22" width="54" x="510" y="374"></rect><text x="537" y="389">Body</text></g></g><path d="M564.0 385a10 10 0 0 0 10 -10v-325a10 10 0 0 1 10 -10" /><path d="M40.0 40a10 10 0 0 1 10 10v355a10 10 0 0 0 10 10" /><g>
<path d="M60.0 415h163.75" /><path d="M400.25 415h163.75" /><g class="non-terminal ">
<path d="M223.75 415h0.0" /><path d="M277.75 415h0.0" /><rect height="22" width="54" x="223.75" y="404"></rect><text x="250.75" y="419">Expr</text></g><path d="M277.75 415h10" /><path d="M287.75 415h10" /><g class="terminal ">
<path d="M297.75 415h0.0" /><path d="M326.25 415h0.0" /><rect height="22" rx="10" ry="10" width="28.5" x="297.75" y="404"></rect><text x="312" y="419">:</text></g><path d="M326.25 415h10" /><path d="M336.25 415h10" /><g class="non-terminal ">
<path d="M346.25 415h0.0" /><path d="M400.25 415h0.0" /><rect height="22" width="54" x="346.25" y="404"></rect><text x="373.25" y="419">Type</text></g></g><path d="M564.0 415a10 10 0 0 0 10 -10v-355a10 10 0 0 1 10 -10" /><path d="M40.0 40a10 10 0 0 1 10 10v385a10 10 0 0 0 10 10" /><g>
<path d="M60.0 445h139.5" /><path d="M424.5 445h139.5" /><g class="non-terminal ">
<path d="M199.5 445h0.0" /><path d="M253.5 445h0.0" /><rect height="22" width="54" x="199.5" y="434"></rect><text x="226.5" y="449">Expr</text></g><path d="M253.5 445h10" /><path d="M263.5 445h10" /><g class="terminal ">
<path d="M273.5 445h0.0" /><path d="M302.0 445h0.0" /><rect height="22" rx="10" ry="10" width="28.5" x="273.5" y="434"></rect><text x="287.75" y="449">[</text></g><path d="M302.0 445h10" /><path d="M312.0 445h10" /><g class="non-terminal ">
<path d="M322.0 445h0.0" /><path d="M376.0 445h0.0" /><rect height="22" width="54" x="322" y="434"></rect><text x="349" y="449">Expr</text></g><path d="M376.0 445h10" /><path d="M386.0 445h10" /><g class="terminal ">
<path d="M396.0 445h0.0" /><path d="M424.5 445h0.0" /><rect height="22" rx="10" ry="10" width="28.5" x="396" y="434"></rect><text x="410.25" y="449">]</text></g></g><path d="M564.0 445a10 10 0 0 0 10 -10v-385a10 10 0 0 1 10 -10" /><path d="M40.0 40a10 10 0 0 1 10 10v415a10 10 0 0 0 10 10" /><g>
<path d="M60.0 475h163.75" /><path d="M400.25 475h163.75" /><g class="non-terminal ">
<path d="M223.75 475h0.0" /><path d="M277.75 475h0.0" /><rect height="22" width="54" x="223.75" y="464"></rect><text x="250.75" y="479">Expr</text></g><path d="M277.75 475h10" /><path d="M287.75 475h10" /><g class="terminal ">
<path d="M297.75 475h0.0" /><path d="M326.25 475h0.0" /><rect height="22" rx="10" ry="10" width="28.5" x="297.75" y="464"></rect><text x="312" y="479">+</text></g><path d="M326.25 475h10" /><path d="M336.25 475h10" /><g class="non-terminal ">
<path d="M346.25 475h0.0" /><path d="M400.25 475h0.0" /><rect height="22" width="54" x="346.25" y="464"></rect><text x="373.25" y="479">Expr</text></g></g><path d="M564.0 475a10 10 0 0 0 10 -10v-415a10 10 0 0 1 10 -10" /><path d="M40.0 40a10 10 0 0 1 10 10v445a10 10 0 0 0 10 10" /><g>
<path d="M60.0 505h163.75" /><path d="M400.25 505h163.75" /><g class="non-terminal ">
<path d="M223.75 505h0.0" /><path d="M277.75 505h0.0" /><rect height="22" width="54" x="223.75" y="494"></rect><text x="250.75" y="509">Expr</text></g><path d="M277.75 505h10" /><path d="M287.75 505h10" /><g class="terminal ">
<path d="M297.75 505h0.0" /><path d="M326.25 505h0.0" /><rect height="22" rx="10" ry="10" width="28.5" x="297.75" y="494"></rect><text x="312" y="509">-</text></g><path d="M326.25 505h10" /><path d="M336.25 505h10" /><g class="non-terminal ">
<path d="M346.25 505h0.0" /><path d="M400.25 505h0.0" /><rect height="22" width="54" x="346.25" y="494"></rect><text x="373.25" y="509">Expr</text></g></g><path d="M564.0 505a10 10 0 0 0 10 -10v-445a10 10 0 0 1 10 -10" /><path d="M40.0 40a10 10 0 0 1 10 10v475a10 10 0 0 0 10 10" /><g>
<path d="M60.0 535h163.75" /><path d="M400.25 535h163.75" /><g class="non-terminal ">
<path d="M223.75 535h0.0" /><path d="M277.75 535h0.0" /><rect height="22" width="54" x="223.75" y="524"></rect><text x="250.75" y="539">Expr</text></g><path d="M277.75 535h10" /><path d="M287.75 535h10" /><g class="terminal ">
<path d="M297.75 535h0.0" /><path d="M326.25 535h0.0" /><rect height="22" rx="10" ry="10" width="28.5" x="297.75" y="524"></rect><text x="312" y="539">*</text></g><path d="M326.25 535h10" /><path d="M336.25 535h10" /><g class="non-terminal ">
<path d="M346.25 535h0.0" /><path d="M400.25 535h0.0" /><rect height="22" width="54" x="346.25" y="524"></rect><text x="373.25" y="539">Expr</text></g></g><path d="M564.0 535a10 10 0 0 0 10 -10v-475a10 10 0 0 1 10 -10" /><path d="M40.0 40a10 10 0 0 1 10 10v505a10 10 0 0 0 10 10" /><g>
<path d="M60.0 565h163.75" /><path d="M400.25 565h163.75" /><g class="non-terminal ">
<path d="M223.75 565h0.0" /><path d="M277.75 565h0.0" /><rect height="22" width="54" x="223.75" y="554"></rect><text x="250.75" y="569">Expr</text></g><path d="M277.75 565h10" /><path d="M287.75 565h10" /><g class="terminal ">
<path d="M297.75 565h0.0" /><path d="M326.25 565h0.0" /><rect height="22" rx="10" ry="10" width="28.5" x="297.75" y="554"></rect><text x="312" y="569">/</text></g><path d="M326.25 565h10" /><path d="M336.25 565h10" /><g class="non-terminal ">
<path d="M346.25 565h0.0" /><path d="M400.25 565h0.0" /><rect height="22" width="54" x="346.25" y="554"></rect><text x="373.25" y="569">Expr</text></g></g><path d="M564.0 565a10 10 0 0 0 10 -10v-505a10 10 0 0 1 10 -10" /><path d="M40.0 40a10 10 0 0 1 10 10v535a10 10 0 0 0 10 10" /><g>
<path d="M60.0 595h163.75" /><path d="M400.25 595h163.75" /><g class="non-terminal ">
<path d="M223.75 595h0.0" /><path d="M277.75 595h0.0" /><rect height="22" width="54" x="223.75" y="584"></rect><text x="250.75" y="599">Expr</text></g><path d="M277.75 595h10" /><path d="M287.75 595h10" /><g class="terminal ">
<path d="M297.75 595h0.0" /><path d="M326.25 595h0.0" /><rect height="22" rx="10" ry="10" width="28.5" x="297.75" y="584"></rect><text x="312" y="599">%</text></g><path d="M326.25 595h10" /><path d="M336.25 595h10" /><g class="non-terminal ">
<path d="M346.25 595h0.0" /><path d="M400.25 595h0.0" /><rect height="22" width="54" x="346.25" y="584"></rect><text x="373.25" y="599">Expr</text></g></g><path d="M564.0 595a10 10 0 0 0 10 -10v-535a10 10 0 0 1 10 -10" /><path d="M40.0 40a10 10 0 0 1 10 10v565a10 10 0 0 0 10 10" /><g>
<path d="M60.0 625h163.75" /><path d="M400.25 625h163.75" /><g class="non-terminal ">
<path d="M223.75 625h0.0" /><path d="M277.75 625h0.0" /><rect height="22" width="54" x="223.75" y="614"></rect><text x="250.75" y="629">Expr</text></g><path d="M277.75 625h10" /><path d="M287.75 625h10" /><g class="terminal ">
<path d="M297.75 625h0.0" /><path d="M326.25 625h0.0" /><rect height="22" rx="10" ry="10" width="28.5" x="297.75" y="614"></rect><text x="312" y="629">&lt;</text></g><path d="M326.25 625h10" /><path d="M336.25 625h10" /><g class="non-terminal ">
<path d="M346.25 625h0.0" /><path d="M400.25 625h0.0" /><rect height="22" width="54" x="346.25" y="614"></rect><text x="373.25" y="629">Expr</text></g></g><path d="M564.0 625a10 10 0 0 0 10 -10v-565a10 10 0 0 1 10 -10" /><path d="M40.0 40a10 10 0 0 1 10 10v595a10 10 0 0 0 10 10" /><g>
<path d="M60.0 655h163.75" /><path d="M400.25 655h163.75" /><g class="non-terminal ">
<path d="M223.75 655h0.0" /><path d="M277.75 655h0.0" /><rect height="22" width="54" x="223.75" y="644"></rect><text x="250.75" y="659">Expr</text></g><path d="M277.75 655h10" /><path d="M287.75 655h10" /><g class="terminal ">
<path d="M297.75 655h0.0" /><path d="M326.25 655h0.0" /><rect height="22" rx="10" ry="10" width="28.5" x="297.75" y="644"></rect><text x="312" y="659">></text></g><path d="M326.25 655h10" /><path d="M336.25 655h10" /><g class="non-terminal ">
<path d="M346.25 655h0.0" /><path d="M400.25 655h0.0" /><rect height="22" width="54" x="346.25" y="644"></rect><text x="373.25" y="659">Expr</text></g></g><path d="M564.0 655a10 10 0 0 0 10 -10v-595a10 10 0 0 1 10 -10" /><path d="M40.0 40a10 10 0 0 1 10 10v625a10 10 0 0 0 10 10" /><g>
<path d="M60.0 685h159.5" /><path d="M404.5 685h159.5" /><g class="non-terminal ">
<path d="M219.5 685h0.0" /><path d="M273.5 685h0.0" /><rect height="22" width="54" x="219.5" y="674"></rect><text x="246.5" y="689">Expr</text></g><path d="M273.5 685h10" /><path d="M283.5 685h10" /><g class="terminal ">
<path d="M293.5 685h0.0" /><path d="M330.5 685h0.0" /><rect height="22" rx="10" ry="10" width="37" x="293.5" y="674"></rect><text x="312" y="689">&lt;=</text></g><path d="M330.5 685h10" /><path d="M340.5 685h10" /><g class="non-terminal ">
<path d="M350.5 685h0.0" /><path d="M404.5 685h0.0" /><rect height="22" width="54" x="350.5" y="674"></rect><text x="377.5" y="689">Expr</text></g></g><path d="M564.0 685a10 10 0 0 0 10 -10v-625a10 10 0 0 1 10 -10" /><path d="M40.0 40a10 10 0 0 1 10 10v655a10 10 0 0 0 10 10" /><g>
<path d="M60.0 715h159.5" /><path d="M404.5 715h159.5" /><g class="non-terminal ">
<path d="M219.5 715h0.0" /><path d="M273.5 715h0.0" /><rect height="22" width="54" x="219.5" y="704"></rect><text x="246.5" y="719">Expr</text></g><path d="M273.5 715h10" /><path d="M283.5 715h10" /><g class="terminal ">
<path d="M293.5 715h0.0" /><path d="M330.5 715h0.0" /><rect height="22" rx="10" ry="10" width="37" x="293.5" y="704"></rect><text x="312" y="719">>=</text></g><path d="M330.5 715h10" /><path d="M340.5 715h10" /><g class="non-terminal ">
<path d="M350.5 715h0.0" /><path d="M404.5 715h0.0" /><rect height="22" width="54" x="350.5" y="704"></rect><text x="377.5" y="719">Expr</text></g></g><path d="M564.0 715a10 10 0 0 0 10 -10v-655a10 10 0 0 1 10 -10" /><path d="M40.0 40a10 10 0 0 1 10 10v685a10 10 0 0 0 10 10" /><g>
<path d="M60.0 745h159.5" /><path d="M404.5 745h159.5" /><g class="non-terminal ">
<path d="M219.5 745h0.0" /><path d="M273.5 745h0.0" /><rect height="22" width="54" x="219.5" y="734"></rect><text x="246.5" y="749">Expr</text></g><path d="M273.5 745h10" /><path d="M283.5 745h10" /><g class="terminal ">
<path d="M293.5 745h0.0" /><path d="M330.5 745h0.0" /><rect height="22" rx="10" ry="10" width="37" x="293.5" y="734"></rect><text x="312" y="749">==</text></g><path d="M330.5 745h10" /><path d="M340.5 745h10" /><g class="non-terminal ">
<path d="M350.5 745h0.0" /><path d="M404.5 745h0.0" /><rect height="22" width="54" x="350.5" y="734"></rect><text x="377.5" y="749">Expr</text></g></g><path d="M564.0 745a10 10 0 0 0 10 -10v-685a10 10 0 0 1 10 -10" /><path d="M40.0 40a10 10 0 0 1 10 10v715a10 10 0 0 0 10 10" /><g>
<path d="M60.0 775h159.5" /><path d="M404.5 775h159.5" /><g class="non-terminal ">
<path d="M219.5 775h0.0" /><path d="M273.5 775h0.0" /><rect height="22" width="54" x="219.5" y="764"></rect><text x="246.5" y="779">Expr</text></g><path d="M273.5 775h10" /><path d="M283.5 775h10" /><g class="terminal ">
<path d="M293.5 775h0.0" /><path d="M330.5 775h0.0" /><rect height="22" rx="10" ry="10" width="37" x="293.5" y="764"></rect><text x="312" y="779">!=</text></g><path d="M330.5 775h10" /><path d="M340.5 775h10" /><g class="non-terminal ">
<path d="M350.5 775h0.0" /><path d="M404.5 775h0.0" /><rect height="22" width="54" x="350.5" y="764"></rect><text x="377.5" y="779">Expr</text></g></g><path d="M564.0 775a10 10 0 0 0 10 -10v-715a10 10 0 0 1 10 -10" /><path d="M40.0 40a10 10 0 0 1 10 10v745a10 10 0 0 0 10 10" /><g>
<path d="M60.0 805h159.5" /><path d="M404.5 805h159.5" /><g class="non-terminal ">
<path d="M219.5 805h0.0" /><path d="M273.5 805h0.0" /><rect height="22" width="54" x="219.5" y="794"></rect><text x="246.5" y="809">Expr</text></g><path d="M273.5 805h10" /><path d="M283.5 805h10" /><g class="terminal ">
<path d="M293.5 805h0.0" /><path d="M330.5 805h0.0" /><rect height="22" rx="10" ry="10" width="37" x="293.5" y="794"></rect><text x="312" y="809">&amp;&amp;</text></g><path d="M330.5 805h10" /><path d="M340.5 805h10" /><g class="non-terminal ">
<path d="M350.5 805h0.0" /><path d="M404.5 805h0.0" /><rect height="22" width="54" x="350.5" y="794"></rect><text x="377.5" y="809">Expr</text></g></g><path d="M564.0 805a10 10 0 0 0 10 -10v-745a10 10 0 0 1 10 -10" /><path d="M40.0 40a10 10 0 0 1 10 10v775a10 10 0 0 0 10 10" /><g>
<path d="M60.0 835h159.5" /><path d="M404.5 835h159.5" /><g class="non-terminal ">
<path d="M219.5 835h0.0" /><path d="M273.5 835h0.0" /><rect height="22" width="54" x="219.5" y="824"></rect><text x="246.5" y="839">Expr</text></g><path d="M273.5 835h10" /><path d="M283.5 835h10" /><g class="terminal ">
<path d="M293.5 835h0.0" /><path d="M330.5 835h0.0" /><rect height="22" rx="10" ry="10" width="37" x="293.5" y="824"></rect><text x="312" y="839">||</text></g><path d="M330.5 835h10" /><path d="M340.5 835h10" /><g class="non-terminal ">
<path d="M350.5 835h0.0" /><path d="M404.5 835h0.0" /><rect height="22" width="54" x="350.5" y="824"></rect><text x="377.5" y="839">Expr</text></g></g><path d="M564.0 835a10 10 0 0 0 10 -10v-775a10 10 0 0 1 10 -10" /><path d="M40.0 40a10 10 0 0 1 10 10v805a10 10 0 0 0 10 10" /><g>
<path d="M60.0 865h200.75" /><path d="M363.25 865h200.75" /><g class="terminal ">
<path d="M260.75 865h0.0" /><path d="M289.25 865h0.0" /><rect height="22" rx="10" ry="10" width="28.5" x="260.75" y="854"></rect><text x="275" y="869">!</text></g><path d="M289.25 865h10" /><path d="M299.25 865h10" /><g class="non-terminal ">
<path d="M309.25 865h0.0" /><path d="M363.25 865h0.0" /><rect height="22" width="54" x="309.25" y="854"></rect><text x="336.25" y="869">Expr</text></g></g><path d="M564.0 865a10 10 0 0 0 10 -10v-805a10 10 0 0 1 10 -10" /><path d="M40.0 40a10 10 0 0 1 10 10v835a10 10 0 0 0 10 10" /><g>
<path d="M60.0 895h48.5" /><path d="M515.5 895h48.5" /><g class="terminal ">
<path d="M108.5 895h0.0" /><path d="M145.5 895h0.0" /><rect height="22" rx="10" ry="10" width="37" x="108.5" y="884"></rect><text x="127" y="899">if</text></g><path d="M145.5 895h10" /><path d="M155.5 895h10" /><g class="non-terminal ">
<path d="M165.5 895h0.0" /><path d="M219.5 895h0.0" /><rect height="22" width="54" x="165.5" y="884"></rect><text x="192.5" y="899">Expr</text></g><path d="M219.5 895h10" /><path d="M229.5 895h10" /><g class="terminal ">
<path d="M239.5 895h0.0" /><path d="M293.5 895h0.0" /><rect height="22" rx="10" ry="10" width="54" x="239.5" y="884"></rect><text x="266.5" y="899">then</text></g><path d="M293.5 895h10" /><path d="M303.5 895h10" /><g class="non-terminal ">
<path d="M313.5 895h0.0" /><path d="M367.5 895h0.0" /><rect height="22" width="54" x="313.5" y="884"></rect><text x="340.5" y="899">Expr</text></g><path d="M367.5 895h10" /><path d="M377.5 895h10" /><g class="terminal ">
<path d="M387.5 895h0.0" /><path d="M441.5 895h0.0" /><rect height="22" rx="10" ry="10" width="54" x="387.5" y="884"></rect><text x="414.5" y="899">else</text></g><path d="M441.5 895h10" /><path d="M451.5 895h10" /><g class="non-terminal ">
<path d="M461.5 895h0.0" /><path d="M515.5 895h0.0" /><rect height="22" width="54" x="461.5" y="884"></rect><text x="488.5" y="899">Expr</text></g></g><path d="M564.0 895a10 10 0 0 0 10 -10v-835a10 10 0 0 1 10 -10" /><path d="M40.0 40a10 10 0 0 1 10 10v865a10 10 0 0 0 10 10" /><g>
<path d="M60.0 925h200.75" /><path d="M363.25 925h200.75" /><g class="terminal ">
<path d="M260.75 925h0.0" /><path d="M289.25 925h0.0" /><rect height="22" rx="10" ry="10" width="28.5" x="260.75" y="914"></rect><text x="275" y="929">@</text></g><path d="M289.25 925h10" /><path d="M299.25 925h10" /><g class="non-terminal ">
<path d="M309.25 925h0.0" /><path d="M363.25 925h0.0" /><rect height="22" width="54" x="309.25" y="914"></rect><text x="336.25" y="929">Type</text></g></g><path d="M564.0 925a10 10 0 0 0 10 -10v-865a10 10 0 0 1 10 -10" /></g><path d="M 584.0 40 h 20 m -10 -10 v 20 m 10 -20 v 20"></path></g></svg>