<svg xmlns="http://www.w3.org/2000/svg" class="railroad-diagram" height="92" viewBox="0 0 387.5 92" width="387.5">
<style>
svg.railroad-diagram { background: #fafafa; }
svg.railroad-diagram path { stroke-width: 2; stroke: #333; fill: none; }
svg.railroad-diagram text {
    font: bold 14px monospace; fill: #333;
    text-anchor: middle;
}
svg.railroad-diagram text.comment { font: italic 12px monospace; fill: #888; }
svg.railroad-diagram rect { stroke-width: 2; stroke: #333; fill: #fff; }
svg.railroad-diagram rect.group-box {
    stroke: #aaa; stroke-dasharray: 4 2; fill: none;
}
</style>
<g transform="translate(.5 .5)">
<g>
<path d="M20 21v20m10 -20v20m-10 -10h20" /></g><g>
<path d="M40 31h0.0" /><path d="M347.5 31h0.0" /><path d="M40.0 31h20" /><g>
<path d="M60.0 31h48.5" /><path d="M279.0 31h48.5" /><g class="non-terminal ">
<path d="M108.5 31h0.0" /><path d="M205.0 31h0.0" /><rect height="22" width="96.5" x="108.5" y="20"></rect><text x="156.75" y="35">Signature</text></g><path d="M205.0 31h10" /><path d="M215.0 31h10" /><g class="non-terminal ">
<path d="M225.0 31h0.0" /><path d="M279.0 31h0.0" /><rect height="22" width="54" x="225" y="20"></rect><text x="252" y="35">Body</text></g></g><path d="M327.5 31h20" /><path d="M40.0 31a10 10 0 0 1 10 10v10a10 10 0 0 0 10 10" /><g>
<path d="M60.0 61h0.0" /><path d="M327.5 61h0.0" /><g class="non-terminal ">
<path d="M60.0 61h0.0" /><path d="M156.5 61h0.0" /><rect height="22" width="96.5" x="60" y="50"></rect><text x="108.25" y="65">Signature</text></g><path d="M156.5 61h10" /><path d="M166.5 61h10" /><g class="terminal ">
<path d="M176.5 61h0.0" /><path d="M205.0 61h0.0" /><rect height="22" rx="10" ry="10" width="28.5" x="176.5" y="50"></rect><text x="190.75" y="65">{</text></g><path d="M205.0 61h10" /><path d="M215.0 61h10" /><g class="non-terminal ">
<path d="M225.0 61h0.0" /><path d="M279.0 61h0.0" /><rect height="22" width="54" x="225" y="50"></rect><text x="252" y="65">Expr</text></g><path d="M279.0 61h10" /><path d="M289.0 61h10" /><g class="terminal ">
<path d="M299.0 61h0.0" /><path d="M327.5 61h0.0" /><rect height="22" rx="10" ry="10" width="28.5" x="299" y="50"></rect><text x="313.25" y="65">}</text></g></g><path d="M327.5 61a10 10 0 0 0 10 -10v-10a10 10 0 0 1 10 -10" /></g><path d="M 347.5 31 h 20 m -10 -10 v 20 m 10 -20 v 20"></path></g></svg>