<svg xmlns="http://www.w3.org/2000/svg" class="railroad-diagram" height="80" viewBox="0 0 1124.5 80" width="1124.5">
<style>
svg.railroad-diagram { background: #fafafa; }
svg.railroad-diagram path { stroke-width: 2; stroke: #333; fill: none; }
svg.railroad-diagram text {
    font: bold 14px monospace; fill: #333;
    text-anchor: middle;
}
svg.railroad-diagram text.comment { font: italic 12px monospace; fill: #888; }
svg.railroad-diagram rect { stroke-width: 2; stroke: #333; fill: #fff; }
svg.railroad-diagram rect.group-box {
    stroke: #aaa; stroke-dasharray: 4 2; fill: none;
}
</style>
<g transform="translate(.5 .5)">
<g>
<path d="M20 30v20m10 -20v20m-10 -10h20" /></g><path d="M40 40h10" /><g>
<path d="M50 40h0.0" /><path d="M1074.5 40h0.0" /><g class="non-terminal ">
<path d="M50.0 40h0.0" /><path d="M146.5 40h0.0" /><rect height="22" width="96.5" x="50" y="29"></rect><text x="98.25" y="44">SigPrefix</text></g><path d="M146.5 40h10" /><g>
<path d="M156.5 40h0.0" /><path d="M276.0 40h0.0" /><path d="M156.5 40a10 10 0 0 0 10 -10v0a10 10 0 0 1 10 -10" /><g>
<path d="M176.5 20h79.5" /></g><path d="M256.0 20a10 10 0 0 1 10 10v0a10 10 0 0 0 10 10" /><path d="M156.5 40h20" /><g class="terminal ">
<path d="M176.5 40h0.0" /><path d="M256.0 40h0.0" /><rect height="22" rx="10" ry="10" width="79.5" x="176.5" y="29"></rect><text x="216.25" y="44">default</text></g><path d="M256.0 40h20" /></g><path d="M276.0 40h10" /><g class="terminal ">
<path d="M286.0 40h0.0" /><path d="M374.0 40h0.0" /><rect height="22" rx="10" ry="10" width="88" x="286" y="29"></rect><text x="330" y="44">instance</text></g><path d="M374.0 40h10" /><path d="M384.0 40h10" /><g class="non-terminal ">
<path d="M394.0 40h0.0" /><path d="M448.0 40h0.0" /><rect height="22" width="54" x="394" y="29"></rect><text x="421" y="44">Type</text></g><path d="M448.0 40h10" /><path d="M458.0 40h10" /><g class="terminal ">
<path d="M468.0 40h0.0" /><path d="M496.5 40h0.0" /><rect height="22" rx="10" ry="10" width="28.5" x="468" y="29"></rect><text x="482.25" y="44">:</text></g><path d="M496.5 40h10" /><path d="M506.5 40h10" /><g class="non-terminal ">
<path d="M516.5 40h0.0" /><path d="M604.5 40h0.0" /><rect height="22" width="88" x="516.5" y="29"></rect><text x="560.5" y="44">TypeName</text></g><path d="M604.5 40h10" /><g>
<path d="M614.5 40h0.0" /><path d="M839.5 40h0.0" /><path d="M614.5 40a10 10 0 0 0 10 -10v0a10 10 0 0 1 10 -10" /><g>
<path d="M634.5 20h185.0" /></g><path d="M819.5 20a10 10 0 0 1 10 10v0a10 10 0 0 0 10 10" /><path d="M614.5 40h20" /><g>
<path d="M634.5 40h0.0" /><path d="M819.5 40h0.0" /><g class="terminal ">
<path d="M634.5 40h0.0" /><path d="M663.0 40h0.0" /><rect height="22" rx="10" ry="10" width="28.5" x="634.5" y="29"></rect><text x="648.75" y="44">(</text></g><path d="M663.0 40h10" /><path d="M673.0 40h10" /><g class="non-terminal ">
<path d="M683.0 40h0.0" /><path d="M771.0 40h0.0" /><rect height="22" width="88" x="683" y="29"></rect><text x="727" y="44">TypeList</text></g><path d="M771.0 40h10" /><path d="M781.0 40h10" /><g class="terminal ">
<path d="M791.0 40h0.0" /><path d="M819.5 40h0.0" /><rect height="22" rx="10" ry="10" width="28.5" x="791" y="29"></rect><text x="805.25" y="44">)</text></g></g><path d="M819.5 40h20" /></g><path d="M839.5 40h10" /><g class="terminal ">
<path d="M849.5 40h0.0" /><path d="M878.0 40h0.0" /><rect height="22" rx="10" ry="10" width="28.5" x="849.5" y="29"></rect><text x="863.75" y="44">{</text></g><path d="M878.0 40h10" /><g>
<path d="M888.0 40h0.0" /><path d="M1036.0 40h0.0" /><path d="M888.0 40a10 10 0 0 0 10 -10v0a10 10 0 0 1 10 -10" /><g>
<path d="M908.0 20h108.0" /></g><path d="M1016.0 20a10 10 0 0 1 10 10v0a10 10 0 0 0 10 10" /><path d="M888.0 40h20" /><g>
<path d="M908.0 40h0.0" /><path d="M1016.0 40h0.0" /><path d="M908.0 40h10" /><g class="non-terminal ">
<path d="M918.0 40h0.0" /><path d="M1006.0 40h0.0" /><rect height="22" width="88" x="918" y="29"></rect><text x="962" y="44">Function</text></g><path d="M1006.0 40h10" /><path d="M918.0 40a10 10 0 0 0 -10 10v0a10 10 0 0 0 10 10" /><g>
<path d="M918.0 60h88.0" /></g><path d="M1006.0 60a10 10 0 0 0 10 -10v0a10 10 0 0 0 -10 -10" /></g><path d="M1016.0 40h20" /></g><path d="M1036.0 40h10" /><g class="terminal ">
<path d="M1046.0 40h0.0" /><path d="M1074.5 40h0.0" /><rect height="22" rx="10" ry="10" width="28.5" x="1046" y="29"></rect><text x="1060.25" y="44">}</text></g></g><path d="M1074.5 40h10" /><path d="M 1084.5 40 h 20 m -10 -10 v 20 m 10 -20 v 20"></path></g></svg>