<svg xmlns="http://www.w3.org/2000/svg" class="railroad-diagram" height="128" viewBox="0 0 423.0 128" width="423.0">
<style>
svg.railroad-diagram { background: #fafafa; }
svg.railroad-diagram path { stroke-width: 2; stroke: #333; fill: none; }
svg.railroad-diagram text {
    font: bold 14px monospace; fill: #333;
    text-anchor: middle;
}
svg.railroad-diagram text.comment { font: italic 12px monospace; fill: #888; }
svg.railroad-diagram rect { stroke-width: 2; stroke: #333; fill: #fff; }
svg.railroad-diagram rect.group-box {
    stroke: #aaa; stroke-dasharray: 4 2; fill: none;
}
</style>
<g transform="translate(.5 .5)">
<g>
<path d="M20 30v20m10 -20v20m-10 -10h20" /></g><g>
<path d="M40 40h0.0" /><path d="M383.0 40h0.0" /><path d="M40.0 40h20" /><g>
<path d="M60.0 40h54.0" /><path d="M309.0 40h54.0" /><g class="non-terminal ">
<path d="M114.0 40h0.0" /><path d="M176.5 40h0.0" /><rect height="22" width="62.5" x="114" y="29"></rect><text x="145.25" y="44">digit</text></g><path d="M176.5 40h10" /><g>
<path d="M186.5 40h0.0" /><path d="M309.0 40h0.0" /><path d="M186.5 40a10 10 0 0 0 10 -10v0a10 10 0 0 1 10 -10" /><g>
<path d="M206.5 20h82.5" /></g><path d="M289.0 20a10 10 0 0 1 10 10v0a10 10 0 0 0 10 10" /><path d="M186.5 40h20" /><g>
<path d="M206.5 40h0.0" /><path d="M289.0 40h0.0" /><path d="M206.5 40h10" /><g class="non-terminal ">
<path d="M216.5 40h0.0" /><path d="M279.0 40h0.0" /><rect height="22" width="62.5" x="216.5" y="29"></rect><text x="247.75" y="44">digit</text></g><path d="M279.0 40h10" /><path d="M216.5 40a10 10 0 0 0 -10 10v0a10 10 0 0 0 10 10" /><g>
<path d="M216.5 60h62.5" /></g><path d="M279.0 60a10 10 0 0 0 10 -10v0a10 10 0 0 0 -10 -10" /></g><path d="M289.0 40h20" /></g></g><path d="M363.0 40h20" /><path d="M40.0 40a10 10 0 0 1 10 10v28a10 10 0 0 0 10 10" /><g>
<path d="M60.0 88h0.0" /><path d="M363.0 88h0.0" /><g class="terminal ">
<path d="M60.0 88h0.0" /><path d="M97.0 88h0.0" /><rect height="22" rx="10" ry="10" width="37" x="60" y="77"></rect><text x="78.5" y="92">0x</text></g><path d="M97.0 88h10" /><path d="M107.0 88h10" /><g class="non-terminal ">
<path d="M117.0 88h0.0" /><path d="M205.0 88h0.0" /><rect height="22" width="88" x="117" y="77"></rect><text x="161" y="92">hexDigit</text></g><path d="M205.0 88h10" /><g>
<path d="M215.0 88h0.0" /><path d="M363.0 88h0.0" /><path d="M215.0 88a10 10 0 0 0 10 -10v0a10 10 0 0 1 10 -10" /><g>
<path d="M235.0 68h108.0" /></g><path d="M343.0 68a10 10 0 0 1 10 10v0a10 10 0 0 0 10 10" /><path d="M215.0 88h20" /><g>
<path d="M235.0 88h0.0" /><path d="M343.0 88h0.0" /><path d="M235.0 88h10" /><g class="non-terminal ">
<path d="M245.0 88h0.0" /><path d="M333.0 88h0.0" /><rect height="22" width="88" x="245" y="77"></rect><text x="289" y="92">hexDigit</text></g><path d="M333.0 88h10" /><path d="M245.0 88a10 10 0 0 0 -10 10v0a10 10 0 0 0 10 10" /><g>
<path d="M245.0 108h88.0" /></g><path d="M333.0 108a10 10 0 0 0 10 -10v0a10 10 0 0 0 -10 -10" /></g><path d="M343.0 88h20" /></g></g><path d="M363.0 88a10 10 0 0 0 10 -10v-28a10 10 0 0 1 10 -10" /></g><path d="M 383.0 40 h 20 m -10 -10 v 20 m 10 -20 v 20"></path></g></svg>