<svg xmlns="http://www.w3.org/2000/svg" class="railroad-diagram" height="80" viewBox="0 0 428.5 80" width="428.5">
<style>
svg.railroad-diagram { background: #fafafa; }
svg.railroad-diagram path { stroke-width: 2; stroke: #333; fill: none; }
svg.railroad-diagram text {
    font: bold 14px monospace; fill: #333;
    text-anchor: middle;
}
svg.railroad-diagram text.comment { font: italic 12px monospace; fill: #888; }
svg.railroad-diagram rect { stroke-width: 2; stroke: #333; fill: #fff; }
svg.railroad-diagram rect.group-box {
    stroke: #aaa; stroke-dasharray: 4 2; fill: none;
}
</style>
<g transform="translate(.5 .5)">
<g>
<path d="M20 30v20m10 -20v20m-10 -10h20" /></g><path d="M40 40h10" /><g>
<path d="M50 40h0.0" /><path d="M378.5 40h0.0" /><g class="non-terminal ">
<path d="M50.0 40h0.0" /><path d="M155.0 40h0.0" /><rect height="22" width="105" x="50" y="29"></rect><text x="102.5" y="44">Identifier</text></g><path d="M155.0 40h10" /><g>
<path d="M165.0 40h0.0" /><path d="M378.5 40h0.0" /><path d="M165.0 40a10 10 0 0 0 10 -10v0a10 10 0 0 1 10 -10" /><g>
<path d="M185.0 20h173.5" /></g><path d="M358.5 20a10 10 0 0 1 10 10v0a10 10 0 0 0 10 10" /><path d="M165.0 40h20" /><g>
<path d="M185.0 40h0.0" /><path d="M358.5 40h0.0" /><path d="M185.0 40h10" /><g>
<path d="M195.0 40h0.0" /><path d="M348.5 40h0.0" /><g class="terminal ">
<path d="M195.0 40h0.0" /><path d="M223.5 40h0.0" /><rect height="22" rx="10" ry="10" width="28.5" x="195" y="29"></rect><text x="209.25" y="44">.</text></g><path d="M223.5 40h10" /><path d="M233.5 40h10" /><g class="non-terminal ">
<path d="M243.5 40h0.0" /><path d="M348.5 40h0.0" /><rect height="22" width="105" x="243.5" y="29"></rect><text x="296" y="44">Identifier</text></g></g><path d="M348.5 40h10" /><path d="M195.0 40a10 10 0 0 0 -10 10v0a10 10 0 0 0 10 10" /><g>
<path d="M195.0 60h153.5" /></g><path d="M348.5 60a10 10 0 0 0 10 -10v0a10 10 0 0 0 -10 -10" /></g><path d="M358.5 40h20" /></g></g><path d="M378.5 40h10" /><path d="M 388.5 40 h 20 m -10 -10 v 20 m 10 -20 v 20"></path></g></svg>