<svg xmlns="http://www.w3.org/2000/svg" class="railroad-diagram" height="230" viewBox="0 0 534.0 230" width="534.0">
<style>
svg.railroad-diagram { background: #fafafa; }
svg.railroad-diagram path { stroke-width: 2; stroke: #333; fill: none; }
svg.railroad-diagram text {
    font: bold 14px monospace; fill: #333;
    text-anchor: middle;
}
svg.railroad-diagram text.comment { font: italic 12px monospace; fill: #888; }
svg.railroad-diagram rect { stroke-width: 2; stroke: #333; fill: #fff; }
svg.railroad-diagram rect.group-box {
    stroke: #aaa; stroke-dasharray: 4 2; fill: none;
}
</style>
<g transform="translate(.5 .5)">
<g>
<path d="M20 30v20m10 -20v20m-10 -10h20" /></g><g>
<path d="M40 40h0.0" /><path d="M494.0 40h0.0" /><path d="M40.0 40h20" /><g>
<path d="M60.0 40h32.75" /><path d="M441.25 40h32.75" /><g class="non-terminal ">
<path d="M92.75 40h0.0" /><path d="M180.75 40h0.0" /><rect height="22" width="88" x="92.75" y="29"></rect><text x="136.75" y="44">TypeName</text></g><path d="M180.75 40h10" /><g>
<path d="M190.75 40h0.0" /><path d="M441.25 40h0.0" /><path d="M190.75 40a10 10 0 0 0 10 -10v0a10 10 0 0 1 10 -10" /><g>
<path d="M210.75 20h210.5" /></g><path d="M421.25 20a10 10 0 0 1 10 10v0a10 10 0 0 0 10 10" /><path d="M190.75 40h20" /><g>
<path d="M210.75 40h0.0" /><path d="M421.25 40h0.0" /><g class="terminal ">
<path d="M210.75 40h0.0" /><path d="M239.25 40h0.0" /><rect height="22" rx="10" ry="10" width="28.5" x="210.75" y="29"></rect><text x="225" y="44">(</text></g><path d="M239.25 40h10" /><path d="M249.25 40h10" /><g class="non-terminal ">
<path d="M259.25 40h0.0" /><path d="M372.75 40h0.0" /><rect height="22" width="113.5" x="259.25" y="29"></rect><text x="316" y="44">PatternList</text></g><path d="M372.75 40h10" /><path d="M382.75 40h10" /><g class="terminal ">
<path d="M392.75 40h0.0" /><path d="M421.25 40h0.0" /><rect height="22" rx="10" ry="10" width="28.5" x="392.75" y="29"></rect><text x="407" y="44">)</text></g></g><path d="M421.25 40h20" /></g></g><path d="M474.0 40h20" /><path d="M40.0 40a10 10 0 0 1 10 10v19a10 10 0 0 0 10 10" /><g>
<path d="M60.0 79h0.0" /><path d="M474.0 79h0.0" /><g class="terminal ">
<path d="M60.0 79h0.0" /><path d="M88.5 79h0.0" /><rect height="22" rx="10" ry="10" width="28.5" x="60" y="68"></rect><text x="74.25" y="83">.</text></g><path d="M88.5 79h10" /><path d="M98.5 79h10" /><g class="non-terminal ">
<path d="M108.5 79h0.0" /><path d="M213.5 79h0.0" /><rect height="22" width="105" x="108.5" y="68"></rect><text x="161" y="83">Identifier</text></g><path d="M213.5 79h10" /><g>
<path d="M223.5 79h0.0" /><path d="M474.0 79h0.0" /><path d="M223.5 79a10 10 0 0 0 10 -10v0a10 10 0 0 1 10 -10" /><g>
<path d="M243.5 59h210.5" /></g><path d="M454.0 59a10 10 0 0 1 10 10v0a10 10 0 0 0 10 10" /><path d="M223.5 79h20" /><g>
<path d="M243.5 79h0.0" /><path d="M454.0 79h0.0" /><g class="terminal ">
<path d="M243.5 79h0.0" /><path d="M272.0 79h0.0" /><rect height="22" rx="10" ry="10" width="28.5" x="243.5" y="68"></rect><text x="257.75" y="83">(</text></g><path d="M272.0 79h10" /><path d="M282.0 79h10" /><g class="non-terminal ">
<path d="M292.0 79h0.0" /><path d="M405.5 79h0.0" /><rect height="22" width="113.5" x="292" y="68"></rect><text x="348.75" y="83">PatternList</text></g><path d="M405.5 79h10" /><path d="M415.5 79h10" /><g class="terminal ">
<path d="M425.5 79h0.0" /><path d="M454.0 79h0.0" /><rect height="22" rx="10" ry="10" width="28.5" x="425.5" y="68"></rect><text x="439.75" y="83">)</text></g></g><path d="M454.0 79h20" /></g></g><path d="M474.0 79a10 10 0 0 0 10 -10v-19a10 10 0 0 1 10 -10" /><path d="M40.0 40a10 10 0 0 1 10 10v49a10 10 0 0 0 10 10" /><g class="terminal ">
<path d="M60.0 109h192.75" /><path d="M281.25 109h192.75" /><rect height="22" rx="10" ry="10" width="28.5" x="252.75" y="98"></rect><text x="267" y="113">_</text></g><path d="M474.0 109a10 10 0 0 0 10 -10v-49a10 10 0 0 1 10 -10" /><path d="M40.0 40a10 10 0 0 1 10 10v79a10 10 0 0 0 10 10" /><g class="non-terminal ">
<path d="M60.0 139h167.25" /><path d="M306.75 139h167.25" /><rect height="22" width="79.5" x="227.25" y="128"></rect><text x="267" y="143">Literal</text></g><path d="M474.0 139a10 10 0 0 0 10 -10v-79a10 10 0 0 1 10 -10" /><path d="M40.0 40a10 10 0 0 1 10 10v109a10 10 0 0 0 10 10" /><g>
<path d="M60.0 169h118.75" /><path d="M355.25 169h118.75" /><g class="terminal ">
<path d="M178.75 169h0.0" /><path d="M207.25 169h0.0" /><rect height="22" rx="10" ry="10" width="28.5" x="178.75" y="158"></rect><text x="193" y="173">(</text></g><path d="M207.25 169h10" /><path d="M217.25 169h10" /><g class="non-terminal ">
<path d="M227.25 169h0.0" /><path d="M306.75 169h0.0" /><rect height="22" width="79.5" x="227.25" y="158"></rect><text x="267" y="173">Pattern</text></g><path d="M306.75 169h10" /><path d="M316.75 169h10" /><g class="terminal ">
<path d="M326.75 169h0.0" /><path d="M355.25 169h0.0" /><rect height="22" rx="10" ry="10" width="28.5" x="326.75" y="158"></rect><text x="341" y="173">)</text></g></g><path d="M474.0 169a10 10 0 0 0 10 -10v-109a10 10 0 0 1 10 -10" /><path d="M40.0 40a10 10 0 0 1 10 10v139a10 10 0 0 0 10 10" /><g>
<path d="M60.0 199h27.75" /><path d="M446.25 199h27.75" /><g class="terminal ">
<path d="M87.75 199h0.0" /><path d="M116.25 199h0.0" /><rect height="22" rx="10" ry="10" width="28.5" x="87.75" y="188"></rect><text x="102" y="203">(</text></g><path d="M116.25 199h10" /><path d="M126.25 199h10" /><g class="non-terminal ">
<path d="M136.25 199h0.0" /><path d="M215.75 199h0.0" /><rect height="22" width="79.5" x="136.25" y="188"></rect><text x="176" y="203">Pattern</text></g><path d="M215.75 199h10" /><path d="M225.75 199h10" /><g class="terminal ">
<path d="M235.75 199h0.0" /><path d="M264.25 199h0.0" /><rect height="22" rx="10" ry="10" width="28.5" x="235.75" y="188"></rect><text x="250" y="203">,</text></g><path d="M264.25 199h10" /><path d="M274.25 199h10" /><g class="non-terminal ">
<path d="M284.25 199h0.0" /><path d="M397.75 199h0.0" /><rect height="22" width="113.5" x="284.25" y="188"></rect><text x="341" y="203">PatternList</text></g><path d="M397.75 199h10" /><path d="M407.75 199h10" /><g class="terminal ">
<path d="M417.75 199h0.0" /><path d="M446.25 199h0.0" /><rect height="22" rx="10" ry="10" width="28.5" x="417.75" y="188"></rect><text x="432" y="203">)</text></g></g><path d="M474.0 199a10 10 0 0 0 10 -10v-139a10 10 0 0 1 10 -10" /></g><path d="M 494.0 40 h 20 m -10 -10 v 20 m 10 -20 v 20"></path></g></svg>