<svg xmlns="http://www.w3.org/2000/svg" class="railroad-diagram" height="71" viewBox="0 0 515.0 71" width="515.0">
<style>
svg.railroad-diagram { background: #fafafa; }
svg.railroad-diagram path { stroke-width: 2; stroke: #333; fill: none; }
svg.railroad-diagram text {
    font: bold 14px monospace; fill: #333;
    text-anchor: middle;
}
svg.railroad-diagram text.comment { font: italic 12px monospace; fill: #888; }
svg.railroad-diagram rect { stroke-width: 2; stroke: #333; fill: #fff; }
svg.railroad-diagram rect.group-box {
    stroke: #aaa; stroke-dasharray: 4 2; fill: none;
}
</style>
<g transform="translate(.5 .5)">
<g>
<path d="M20 30v20m10 -20v20m-10 -10h20" /></g><path d="M40 40h10" /><g>
<path d="M50 40h0.0" /><path d="M465.0 40h0.0" /><g class="terminal ">
<path d="M50.0 40h0.0" /><path d="M121.0 40h0.0" /><rect height="22" rx="10" ry="10" width="71" x="50" y="29"></rect><text x="85.5" y="44">pragma</text></g><path d="M121.0 40h10" /><path d="M131.0 40h10" /><g class="non-terminal ">
<path d="M141.0 40h0.0" /><path d="M246.0 40h0.0" /><rect height="22" width="105" x="141" y="29"></rect><text x="193.5" y="44">PragmaKind</text></g><path d="M246.0 40h10" /><g>
<path d="M256.0 40h0.0" /><path d="M426.5 40h0.0" /><path d="M256.0 40a10 10 0 0 0 10 -10v0a10 10 0 0 1 10 -10" /><g>
<path d="M276.0 20h130.5" /></g><path d="M406.5 20a10 10 0 0 1 10 10v0a10 10 0 0 0 10 10" /><path d="M256.0 40h20" /><g class="non-terminal ">
<path d="M276.0 40h0.0" /><path d="M406.5 40h0.0" /><rect height="22" width="130.5" x="276" y="29"></rect><text x="341.25" y="44">PragmaTargets</text></g><path d="M406.5 40h20" /></g><path d="M426.5 40h10" /><g class="terminal ">
<path d="M436.5 40h0.0" /><path d="M465.0 40h0.0" /><rect height="22" rx="10" ry="10" width="28.5" x="436.5" y="29"></rect><text x="450.75" y="44">;</text></g></g><path d="M465.0 40h10" /><path d="M 475.0 40 h 20 m -10 -10 v 20 m 10 -20 v 20"></path></g></svg>