<svg xmlns="http://www.w3.org/2000/svg" class="railroad-diagram" height="122" viewBox="0 0 386.5 122" width="386.5">
<style>
svg.railroad-diagram { background: #fafafa; }
svg.railroad-diagram path { stroke-width: 2; stroke: #333; fill: none; }
svg.railroad-diagram text {
    font: bold 14px monospace; fill: #333;
    text-anchor: middle;
}
svg.railroad-diagram text.comment { font: italic 12px monospace; fill: #888; }
svg.railroad-diagram rect { stroke-width: 2; stroke: #333; fill: #fff; }
svg.railroad-diagram rect.group-box {
    stroke: #aaa; stroke-dasharray: 4 2; fill: none;
}
</style>
<g transform="translate(.5 .5)">
<g>
<path d="M20 21v20m10 -20v20m-10 -10h20" /></g><g>
<path d="M40 31h0.0" /><path d="M346.5 31h0.0" /><path d="M40.0 31h20" /><g class="terminal ">
<path d="M60.0 31h34.0" /><path d="M292.5 31h34.0" /><rect height="22" rx="10" ry="10" width="198.5" x="94" y="20"></rect><text x="193.25" y="35">no-coverage-condition</text></g><path d="M326.5 31h20" /><path d="M40.0 31a10 10 0 0 1 10 10v10a10 10 0 0 0 10 10" /><g class="terminal ">
<path d="M60.0 61h29.75" /><path d="M296.75 61h29.75" /><rect height="22" rx="10" ry="10" width="207" x="89.75" y="50"></rect><text x="193.25" y="65">no-patterson-condition</text></g><path d="M326.5 61a10 10 0 0 0 10 -10v-10a10 10 0 0 1 10 -10" /><path d="M40.0 31a10 10 0 0 1 10 10v40a10 10 0 0 0 10 10" /><g class="terminal ">
<path d="M60.0 91h0.0" /><path d="M326.5 91h0.0" /><rect height="22" rx="10" ry="10" width="266.5" x="60" y="80"></rect><text x="193.25" y="95">no-bounded-variable-condition</text></g><path d="M326.5 91a10 10 0 0 0 10 -10v-40a10 10 0 0 1 10 -10" /></g><path d="M 346.5 31 h 20 m -10 -10 v 20 m 10 -20 v 20"></path></g></svg>