<svg xmlns="http://www.w3.org/2000/svg" class="railroad-diagram" height="377" viewBox="0 0 604.0 377" width="604.0">
<style>
svg.railroad-diagram { background: #fafafa; }
svg.railroad-diagram path { stroke-width: 2; stroke: #333; fill: none; }
svg.railroad-diagram text {
    font: bold 14px monospace; fill: #333;
    text-anchor: middle;
}
svg.railroad-diagram text.comment { font: italic 12px monospace; fill: #888; }
svg.railroad-diagram rect { stroke-width: 2; stroke: #333; fill: #fff; }
svg.railroad-diagram rect.group-box {
    stroke: #aaa; stroke-dasharray: 4 2; fill: none;
}
</style>
<g transform="translate(.5 .5)">
<g>
<path d="M20 21v20m10 -20v20m-10 -10h20" /></g><g>
<path d="M40 31h0.0" /><path d="M564.0 31h0.0" /><path d="M40.0 31h20" /><g>
<path d="M60.0 31h129.5" /><path d="M414.5 31h129.5" /><g class="non-terminal ">
<path d="M189.5 31h0.0" /><path d="M243.5 31h0.0" /><rect height="22" width="54" x="189.5" y="20"></rect><text x="216.5" y="35">Expr</text></g><path d="M243.5 31h10" /><path d="M253.5 31h10" /><g class="terminal ">
<path d="M263.5 31h0.0" /><path d="M292.0 31h0.0" /><rect height="22" rx="10" ry="10" width="28.5" x="263.5" y="20"></rect><text x="277.75" y="35">=</text></g><path d="M292.0 31h10" /><path d="M302.0 31h10" /><g class="non-terminal ">
<path d="M312.0 31h0.0" /><path d="M366.0 31h0.0" /><rect height="22" width="54" x="312" y="20"></rect><text x="339" y="35">Expr</text></g><path d="M366.0 31h10" /><path d="M376.0 31h10" /><g class="terminal ">
<path d="M386.0 31h0.0" /><path d="M414.5 31h0.0" /><rect height="22" rx="10" ry="10" width="28.5" x="386" y="20"></rect><text x="400.25" y="35">;</text></g></g><path d="M544.0 31h20" /><path d="M40.0 31a10 10 0 0 1 10 10v10a10 10 0 0 0 10 10" /><g>
<path d="M60.0 61h125.25" /><path d="M418.75 61h125.25" /><g class="non-terminal ">
<path d="M185.25 61h0.0" /><path d="M239.25 61h0.0" /><rect height="22" width="54" x="185.25" y="50"></rect><text x="212.25" y="65">Expr</text></g><path d="M239.25 61h10" /><path d="M249.25 61h10" /><g class="terminal ">
<path d="M259.25 61h0.0" /><path d="M296.25 61h0.0" /><rect height="22" rx="10" ry="10" width="37" x="259.25" y="50"></rect><text x="277.75" y="65">+=</text></g><path d="M296.25 61h10" /><path d="M306.25 61h10" /><g class="non-terminal ">
<path d="M316.25 61h0.0" /><path d="M370.25 61h0.0" /><rect height="22" width="54" x="316.25" y="50"></rect><text x="343.25" y="65">Expr</text></g><path d="M370.25 61h10" /><path d="M380.25 61h10" /><g class="terminal ">
<path d="M390.25 61h0.0" /><path d="M418.75 61h0.0" /><rect height="22" rx="10" ry="10" width="28.5" x="390.25" y="50"></rect><text x="404.5" y="65">;</text></g></g><path d="M544.0 61a10 10 0 0 0 10 -10v-10a10 10 0 0 1 10 -10" /><path d="M40.0 31a10 10 0 0 1 10 10v40a10 10 0 0 0 10 10" /><g>
<path d="M60.0 91h125.25" /><path d="M418.75 91h125.25" /><g class="non-terminal ">
<path d="M185.25 91h0.0" /><path d="M239.25 91h0.0" /><rect height="22" width="54" x="185.25" y="80"></rect><text x="212.25" y="95">Expr</text></g><path d="M239.25 91h10" /><path d="M249.25 91h10" /><g class="terminal ">
<path d="M259.25 91h0.0" /><path d="M296.25 91h0.0" /><rect height="22" rx="10" ry="10" width="37" x="259.25" y="80"></rect><text x="277.75" y="95">-=</text></g><path d="M296.25 91h10" /><path d="M306.25 91h10" /><g class="non-terminal ">
<path d="M316.25 91h0.0" /><path d="M370.25 91h0.0" /><rect height="22" width="54" x="316.25" y="80"></rect><text x="343.25" y="95">Expr</text></g><path d="M370.25 91h10" /><path d="M380.25 91h10" /><g class="terminal ">
<path d="M390.25 91h0.0" /><path d="M418.75 91h0.0" /><rect height="22" rx="10" ry="10" width="28.5" x="390.25" y="80"></rect><text x="404.5" y="95">;</text></g></g><path d="M544.0 91a10 10 0 0 0 10 -10v-40a10 10 0 0 1 10 -10" /><path d="M40.0 31a10 10 0 0 1 10 10v79a10 10 0 0 0 10 10" /><g>
<path d="M60.0 130h0.0" /><path d="M544.0 130h0.0" /><g class="terminal ">
<path d="M60.0 130h0.0" /><path d="M105.5 130h0.0" /><rect height="22" rx="10" ry="10" width="45.5" x="60" y="119"></rect><text x="82.75" y="134">let</text></g><path d="M105.5 130h10" /><path d="M115.5 130h10" /><g class="non-terminal ">
<path d="M125.5 130h0.0" /><path d="M230.5 130h0.0" /><rect height="22" width="105" x="125.5" y="119"></rect><text x="178" y="134">Identifier</text></g><path d="M230.5 130h10" /><path d="M240.5 130h10" /><g class="terminal ">
<path d="M250.5 130h0.0" /><path d="M279.0 130h0.0" /><rect height="22" rx="10" ry="10" width="28.5" x="250.5" y="119"></rect><text x="264.75" y="134">:</text></g><path d="M279.0 130h10" /><path d="M289.0 130h10" /><g class="non-terminal ">
<path d="M299.0 130h0.0" /><path d="M353.0 130h0.0" /><rect height="22" width="54" x="299" y="119"></rect><text x="326" y="134">Type</text></g><path d="M353.0 130h10" /><g>
<path d="M363.0 130h0.0" /><path d="M505.5 130h0.0" /><path d="M363.0 130a10 10 0 0 0 10 -10v0a10 10 0 0 1 10 -10" /><g>
<path d="M383.0 110h102.5" /></g><path d="M485.5 110a10 10 0 0 1 10 10v0a10 10 0 0 0 10 10" /><path d="M363.0 130h20" /><g>
<path d="M383.0 130h0.0" /><path d="M485.5 130h0.0" /><g class="terminal ">
<path d="M383.0 130h0.0" /><path d="M411.5 130h0.0" /><rect height="22" rx="10" ry="10" width="28.5" x="383" y="119"></rect><text x="397.25" y="134">=</text></g><path d="M411.5 130h10" /><path d="M421.5 130h10" /><g class="non-terminal ">
<path d="M431.5 130h0.0" /><path d="M485.5 130h0.0" /><rect height="22" width="54" x="431.5" y="119"></rect><text x="458.5" y="134">Expr</text></g></g><path d="M485.5 130h20" /></g><path d="M505.5 130h10" /><g class="terminal ">
<path d="M515.5 130h0.0" /><path d="M544.0 130h0.0" /><rect height="22" rx="10" ry="10" width="28.5" x="515.5" y="119"></rect><text x="529.75" y="134">;</text></g></g><path d="M544.0 130a10 10 0 0 0 10 -10v-79a10 10 0 0 1 10 -10" /><path d="M40.0 31a10 10 0 0 1 10 10v118a10 10 0 0 0 10 10" /><g>
<path d="M60.0 169h61.25" /><path d="M482.75 169h61.25" /><g class="terminal ">
<path d="M121.25 169h0.0" /><path d="M166.75 169h0.0" /><rect height="22" rx="10" ry="10" width="45.5" x="121.25" y="158"></rect><text x="144" y="173">let</text></g><path d="M166.75 169h10" /><path d="M176.75 169h10" /><g class="non-terminal ">
<path d="M186.75 169h0.0" /><path d="M291.75 169h0.0" /><rect height="22" width="105" x="186.75" y="158"></rect><text x="239.25" y="173">Identifier</text></g><path d="M291.75 169h10" /><g>
<path d="M301.75 169h0.0" /><path d="M444.25 169h0.0" /><path d="M301.75 169a10 10 0 0 0 10 -10v0a10 10 0 0 1 10 -10" /><g>
<path d="M321.75 149h102.5" /></g><path d="M424.25 149a10 10 0 0 1 10 10v0a10 10 0 0 0 10 10" /><path d="M301.75 169h20" /><g>
<path d="M321.75 169h0.0" /><path d="M424.25 169h0.0" /><g class="terminal ">
<path d="M321.75 169h0.0" /><path d="M350.25 169h0.0" /><rect height="22" rx="10" ry="10" width="28.5" x="321.75" y="158"></rect><text x="336" y="173">=</text></g><path d="M350.25 169h10" /><path d="M360.25 169h10" /><g class="non-terminal ">
<path d="M370.25 169h0.0" /><path d="M424.25 169h0.0" /><rect height="22" width="54" x="370.25" y="158"></rect><text x="397.25" y="173">Expr</text></g></g><path d="M424.25 169h20" /></g><path d="M444.25 169h10" /><g class="terminal ">
<path d="M454.25 169h0.0" /><path d="M482.75 169h0.0" /><rect height="22" rx="10" ry="10" width="28.5" x="454.25" y="158"></rect><text x="468.5" y="173">;</text></g></g><path d="M544.0 169a10 10 0 0 0 10 -10v-118a10 10 0 0 1 10 -10" /><path d="M40.0 31a10 10 0 0 1 10 10v148a10 10 0 0 0 10 10" /><g>
<path d="M60.0 199h190.75" /><path d="M353.25 199h190.75" /><g class="non-terminal ">
<path d="M250.75 199h0.0" /><path d="M304.75 199h0.0" /><rect height="22" width="54" x="250.75" y="188"></rect><text x="277.75" y="203">Expr</text></g><path d="M304.75 199h10" /><path d="M314.75 199h10" /><g class="terminal ">
<path d="M324.75 199h0.0" /><path d="M353.25 199h0.0" /><rect height="22" rx="10" ry="10" width="28.5" x="324.75" y="188"></rect><text x="339" y="203">;</text></g></g><path d="M544.0 199a10 10 0 0 0 10 -10v-148a10 10 0 0 1 10 -10" /><path d="M40.0 31a10 10 0 0 1 10 10v178a10 10 0 0 0 10 10" /><g>
<path d="M60.0 229h145.25" /><path d="M398.75 229h145.25" /><g class="terminal ">
<path d="M205.25 229h0.0" /><path d="M276.25 229h0.0" /><rect height="22" rx="10" ry="10" width="71" x="205.25" y="218"></rect><text x="240.75" y="233">return</text></g><path d="M276.25 229h10" /><path d="M286.25 229h10" /><g class="non-terminal ">
<path d="M296.25 229h0.0" /><path d="M350.25 229h0.0" /><rect height="22" width="54" x="296.25" y="218"></rect><text x="323.25" y="233">Expr</text></g><path d="M350.25 229h10" /><path d="M360.25 229h10" /><g class="terminal ">
<path d="M370.25 229h0.0" /><path d="M398.75 229h0.0" /><rect height="22" rx="10" ry="10" width="28.5" x="370.25" y="218"></rect><text x="384.5" y="233">;</text></g></g><path d="M544.0 229a10 10 0 0 0 10 -10v-178a10 10 0 0 1 10 -10" /><path d="M40.0 31a10 10 0 0 1 10 10v217a10 10 0 0 0 10 10" /><g>
<path d="M60.0 268h30.0" /><path d="M514.0 268h30.0" /><g class="terminal ">
<path d="M90.0 268h0.0" /><path d="M152.5 268h0.0" /><rect height="22" rx="10" ry="10" width="62.5" x="90" y="257"></rect><text x="121.25" y="272">match</text></g><path d="M152.5 268h10" /><path d="M162.5 268h10" /><g class="non-terminal ">
<path d="M172.5 268h0.0" /><path d="M269.0 268h0.0" /><rect height="22" width="96.5" x="172.5" y="257"></rect><text x="220.75" y="272">MatchArgs</text></g><path d="M269.0 268h10" /><path d="M279.0 268h10" /><g class="terminal ">
<path d="M289.0 268h0.0" /><path d="M317.5 268h0.0" /><rect height="22" rx="10" ry="10" width="28.5" x="289" y="257"></rect><text x="303.25" y="272">{</text></g><path d="M317.5 268h10" /><g>
<path d="M327.5 268h0.0" /><path d="M475.5 268h0.0" /><path d="M327.5 268a10 10 0 0 0 10 -10v0a10 10 0 0 1 10 -10" /><g>
<path d="M347.5 248h108.0" /></g><path d="M455.5 248a10 10 0 0 1 10 10v0a10 10 0 0 0 10 10" /><path d="M327.5 268h20" /><g>
<path d="M347.5 268h0.0" /><path d="M455.5 268h0.0" /><path d="M347.5 268h10" /><g class="non-terminal ">
<path d="M357.5 268h0.0" /><path d="M445.5 268h0.0" /><rect height="22" width="88" x="357.5" y="257"></rect><text x="401.5" y="272">Equation</text></g><path d="M445.5 268h10" /><path d="M357.5 268a10 10 0 0 0 -10 10v0a10 10 0 0 0 10 10" /><g>
<path d="M357.5 288h88.0" /></g><path d="M445.5 288a10 10 0 0 0 10 -10v0a10 10 0 0 0 -10 -10" /></g><path d="M455.5 268h20" /></g><path d="M475.5 268h10" /><g class="terminal ">
<path d="M485.5 268h0.0" /><path d="M514.0 268h0.0" /><rect height="22" rx="10" ry="10" width="28.5" x="485.5" y="257"></rect><text x="499.75" y="272">}</text></g></g><path d="M544.0 268a10 10 0 0 0 10 -10v-217a10 10 0 0 1 10 -10" /><path d="M40.0 31a10 10 0 0 1 10 10v256a10 10 0 0 0 10 10" /><g class="non-terminal ">
<path d="M60.0 307h198.0" /><path d="M346.0 307h198.0" /><rect height="22" width="88" x="258" y="296"></rect><text x="302" y="311">AsmBlock</text></g><path d="M544.0 307a10 10 0 0 0 10 -10v-256a10 10 0 0 1 10 -10" /><path d="M40.0 31a10 10 0 0 1 10 10v295a10 10 0 0 0 10 10" /><g>
<path d="M60.0 346h12.0" /><path d="M532.0 346h12.0" /><g class="terminal ">
<path d="M72.0 346h0.0" /><path d="M109.0 346h0.0" /><rect height="22" rx="10" ry="10" width="37" x="72" y="335"></rect><text x="90.5" y="350">if</text></g><path d="M109.0 346h10" /><path d="M119.0 346h10" /><g class="terminal ">
<path d="M129.0 346h0.0" /><path d="M157.5 346h0.0" /><rect height="22" rx="10" ry="10" width="28.5" x="129" y="335"></rect><text x="143.25" y="350">(</text></g><path d="M157.5 346h10" /><path d="M167.5 346h10" /><g class="non-terminal ">
<path d="M177.5 346h0.0" /><path d="M231.5 346h0.0" /><rect height="22" width="54" x="177.5" y="335"></rect><text x="204.5" y="350">Expr</text></g><path d="M231.5 346h10" /><path d="M241.5 346h10" /><g class="terminal ">
<path d="M251.5 346h0.0" /><path d="M280.0 346h0.0" /><rect height="22" rx="10" ry="10" width="28.5" x="251.5" y="335"></rect><text x="265.75" y="350">)</text></g><path d="M280.0 346h10" /><path d="M290.0 346h10" /><g class="non-terminal ">
<path d="M300.0 346h0.0" /><path d="M354.0 346h0.0" /><rect height="22" width="54" x="300" y="335"></rect><text x="327" y="350">Body</text></g><path d="M354.0 346h10" /><g>
<path d="M364.0 346h0.0" /><path d="M532.0 346h0.0" /><path d="M364.0 346a10 10 0 0 0 10 -10v0a10 10 0 0 1 10 -10" /><g>
<path d="M384.0 326h128.0" /></g><path d="M512.0 326a10 10 0 0 1 10 10v0a10 10 0 0 0 10 10" /><path d="M364.0 346h20" /><g>
<path d="M384.0 346h0.0" /><path d="M512.0 346h0.0" /><g class="terminal ">
<path d="M384.0 346h0.0" /><path d="M438.0 346h0.0" /><rect height="22" rx="10" ry="10" width="54" x="384" y="335"></rect><text x="411" y="350">else</text></g><path d="M438.0 346h10" /><path d="M448.0 346h10" /><g class="non-terminal ">
<path d="M458.0 346h0.0" /><path d="M512.0 346h0.0" /><rect height="22" width="54" x="458" y="335"></rect><text x="485" y="350">Body</text></g></g><path d="M512.0 346h20" /></g></g><path d="M544.0 346a10 10 0 0 0 10 -10v-295a10 10 0 0 1 10 -10" /></g><path d="M 564.0 31 h 20 m -10 -10 v 20 m 10 -20 v 20"></path></g></svg>