<svg xmlns="http://www.w3.org/2000/svg" class="railroad-diagram" height="80" viewBox="0 0 245.0 80" width="245.0">
<style>
svg.railroad-diagram { background: #fafafa; }
svg.railroad-diagram path { stroke-width: 2; stroke: #333; fill: none; }
svg.railroad-diagram text {
    font: bold 14px monospace; fill: #333;
    text-anchor: middle;
}
svg.railroad-diagram text.comment { font: italic 12px monospace; fill: #888; }
svg.railroad-diagram rect { stroke-width: 2; stroke: #333; fill: #fff; }
svg.railroad-diagram rect.group-box {
    stroke: #aaa; stroke-dasharray: 4 2; fill: none;
}
</style>
<g transform="translate(.5 .5)">
<g>
<path d="M20 30v20m10 -20v20m-10 -10h20" /></g><g>
<path d="M40 40h0.0" /><path d="M205.0 40h0.0" /><path d="M40.0 40a10 10 0 0 0 10 -10v0a10 10 0 0 1 10 -10" /><g>
<path d="M60.0 20h125.0" /></g><path d="M185.0 20a10 10 0 0 1 10 10v0a10 10 0 0 0 10 10" /><path d="M40.0 40h20" /><g>
<path d="M60.0 40h0.0" /><path d="M185.0 40h0.0" /><path d="M60.0 40h10" /><g class="non-terminal ">
<path d="M70.0 40h0.0" /><path d="M175.0 40h0.0" /><rect height="22" width="105" x="70" y="29"></rect><text x="122.5" y="44">Identifier</text></g><path d="M175.0 40h10" /><path d="M70.0 40a10 10 0 0 0 -10 10v0a10 10 0 0 0 10 10" /><g>
<path d="M70.0 60h105.0" /></g><path d="M175.0 60a10 10 0 0 0 10 -10v0a10 10 0 0 0 -10 -10" /></g><path d="M185.0 40h20" /></g><path d="M 205.0 40 h 20 m -10 -10 v 20 m 10 -20 v 20"></path></g></svg>